<?xml version="1.0" encoding="UTF-8" standalone="no"?>
<!DOCTYPE svg PUBLIC "-//W3C//DTD SVG 1.1//EN"
 "http://www.w3.org/Graphics/SVG/1.1/DTD/svg11.dtd">
<!-- Generated by graphviz version 2.43.0 (0)
 -->
<!-- Title: G Pages: 1 -->
<svg width="1211pt" height="504pt"
 viewBox="0.00 0.00 1211.00 504.00" xmlns="http://www.w3.org/2000/svg" xmlns:xlink="http://www.w3.org/1999/xlink">
<g id="graph0" class="graph" transform="scale(1 1) rotate(0) translate(4 500)">
<title>G</title>
<polygon fill="white" stroke="transparent" points="-4,4 -4,-500 1207,-500 1207,4 -4,4"/>
<g id="clust1" class="cluster">
<title>cluster_root</title>
<g id="a_clust1"><a xlink:title="eventq_index=0&#10;full_system=false&#10;sim_quantum=0&#10;time_sync_enable=false&#10;time_sync_period=100000000000&#10;time_sync_spin_threshold=100000000">
<path fill="#bab6ae" stroke="#000000" d="M20,-8C20,-8 1183,-8 1183,-8 1189,-8 1195,-14 1195,-20 1195,-20 1195,-476 1195,-476 1195,-482 1189,-488 1183,-488 1183,-488 20,-488 20,-488 14,-488 8,-482 8,-476 8,-476 8,-20 8,-20 8,-14 14,-8 20,-8"/>
<text text-anchor="middle" x="601.5" y="-472.8" font-family="Arial" font-size="14.00" fill="#000000">root </text>
<text text-anchor="middle" x="601.5" y="-457.8" font-family="Arial" font-size="14.00" fill="#000000">: Root</text>
</a>
</g>
</g>
<g id="clust2" class="cluster">
<title>cluster_system</title>
<g id="a_clust2"><a xlink:title="auto_unlink_shared_backstore=false&#10;cache_line_size=64&#10;eventq_index=0&#10;exit_on_work_items=false&#10;init_param=0&#10;m5ops_base=0&#10;mem_mode=timing&#10;mem_ranges=0:536870912&#10;memories=system.mem_ctrl.dram&#10;mmap_using_noreserve=false&#10;multi_thread=false&#10;&#10;um_work_ids=16&#10;&#13;eadfile=&#10;&#13;edirect_paths=&#10;shadow_rom_ranges=&#10;shared_backstore=&#10;symbolfile=&#10;thermal_components=&#10;thermal_model=Null&#10;work_begin_ckpt_count=0&#10;work_begin_cpu_id_exit=&#45;1&#10;work_begin_exit_count=0&#10;work_cpus_ckpt_count=0&#10;work_end_ckpt_count=0&#10;work_end_exit_count=0&#10;work_item_id=&#45;1&#10;workload=system.workload">
<path fill="#e4e7eb" stroke="#000000" d="M28,-16C28,-16 1175,-16 1175,-16 1181,-16 1187,-22 1187,-28 1187,-28 1187,-430 1187,-430 1187,-436 1181,-442 1175,-442 1175,-442 28,-442 28,-442 22,-442 16,-436 16,-430 16,-430 16,-28 16,-28 16,-22 22,-16 28,-16"/>
<text text-anchor="middle" x="601.5" y="-426.8" font-family="Arial" font-size="14.00" fill="#000000">system </text>
<text text-anchor="middle" x="601.5" y="-411.8" font-family="Arial" font-size="14.00" fill="#000000">: System</text>
</a>
</g>
</g>
<g id="clust6" class="cluster">
<title>cluster_system_cpu</title>
<g id="a_clust6"><a xlink:title="branchPred=Null&#10;checker=Null&#10;clk_domain=system.clk_domain&#10;cpu_id=&#45;1&#10;decoder=system.cpu.decoder&#10;do_checkpoint_insts=true&#10;do_statistics_insts=true&#10;eventq_index=0&#10;function_trace=false&#10;function_trace_start=0&#10;interrupts=system.cpu.interrupts&#10;isa=system.cpu.isa&#10;max_insts_all_threads=0&#10;max_insts_any_thread=0&#10;mmu=system.cpu.mmu&#10;&#10;umThreads=1&#10;power_gating_on_idle=false&#10;power_model=&#10;power_state=system.cpu.power_state&#10;progress_interval=0&#10;pwr_gating_latency=300&#10;simpoint_start_insts=&#10;socket_id=0&#10;switched_out=false&#10;syscallRetryLatency=10000&#10;system=system&#10;tracer=system.cpu.tracer&#10;workload=system.cpu.workload">
<path fill="#bbc6d9" stroke="#000000" d="M36,-24C36,-24 536,-24 536,-24 542,-24 548,-30 548,-36 548,-36 548,-156 548,-156 548,-162 542,-168 536,-168 536,-168 36,-168 36,-168 30,-168 24,-162 24,-156 24,-156 24,-36 24,-36 24,-30 30,-24 36,-24"/>
<text text-anchor="middle" x="286" y="-152.8" font-family="Arial" font-size="14.00" fill="#000000">cpu </text>
<text text-anchor="middle" x="286" y="-137.8" font-family="Arial" font-size="14.00" fill="#000000">: X86TimingSimpleCPU</text>
</a>
</g>
</g>
<g id="clust16" class="cluster">
<title>cluster_system_cpu_interrupts</title>
<g id="a_clust16"><a xlink:title="clk_domain=system.cpu.interrupts.clk_domain&#10;eventq_index=0&#10;int_latency=1000&#10;pio_latency=100000&#10;system=system">
<path fill="#bab6ae" stroke="#000000" d="M250,-32C250,-32 528,-32 528,-32 534,-32 540,-38 540,-44 540,-44 540,-110 540,-110 540,-116 534,-122 528,-122 528,-122 250,-122 250,-122 244,-122 238,-116 238,-110 238,-110 238,-44 238,-44 238,-38 244,-32 250,-32"/>
<text text-anchor="middle" x="389" y="-106.8" font-family="Arial" font-size="14.00" fill="#000000">interrupts </text>
<text text-anchor="middle" x="389" y="-91.8" font-family="Arial" font-size="14.00" fill="#000000">: X86LocalApic</text>
</a>
</g>
</g>
<g id="clust21" class="cluster">
<title>cluster_system_membus</title>
<g id="a_clust21"><a xlink:title="clk_domain=system.clk_domain&#10;eventq_index=0&#10;forward_latency=4&#10;frontend_latency=3&#10;header_latency=1&#10;max_outstanding_snoops=512&#10;max_routing_table_size=512&#10;point_of_coherency=true&#10;point_of_unification=true&#10;power_model=&#10;power_state=system.membus.power_state&#10;&#13;esponse_latency=2&#10;snoop_filter=system.membus.snoop_filter&#10;snoop_response_latency=4&#10;system=system&#10;use_default_range=false&#10;width=16">
<path fill="#6f798c" stroke="#000000" d="M206,-176C206,-176 442,-176 442,-176 448,-176 454,-182 454,-188 454,-188 454,-254 454,-254 454,-260 448,-266 442,-266 442,-266 206,-266 206,-266 200,-266 194,-260 194,-254 194,-254 194,-188 194,-188 194,-182 200,-176 206,-176"/>
<text text-anchor="middle" x="324" y="-250.8" font-family="Arial" font-size="14.00" fill="#000000">membus </text>
<text text-anchor="middle" x="324" y="-235.8" font-family="Arial" font-size="14.00" fill="#000000">: SystemXBar</text>
</a>
</g>
</g>
<g id="clust24" class="cluster">
<title>cluster_system_mem_ctrl</title>
<g id="a_clust24"><a xlink:title="clk_domain=system.clk_domain&#10;command_window=10000&#10;disable_sanity_check=false&#10;dram=system.mem_ctrl.dram&#10;eventq_index=0&#10;mem_sched_policy=frfcfs&#10;min_reads_per_switch=16&#10;min_writes_per_switch=16&#10;power_model=&#10;power_state=system.mem_ctrl.power_state&#10;qos_policy=Null&#10;qos_priorities=1&#10;qos_priority_escalation=false&#10;qos_q_policy=fifo&#10;qos_requestors= &#160;&#160;&#160;&#160;&#160;&#160;&#160;&#160;&#160;&#160;&#160;&#160;&#160;&#160;&#10;qos_syncro_scheduler=false&#10;qos_turnaround_policy=Null&#10;static_backend_latency=10000&#10;static_frontend_latency=10000&#10;system=system&#10;write_high_thresh_perc=85&#10;write_low_thresh_perc=50">
<path fill="#bab6ae" stroke="#000000" d="M568,-32C568,-32 621,-32 621,-32 627,-32 633,-38 633,-44 633,-44 633,-110 633,-110 633,-116 627,-122 621,-122 621,-122 568,-122 568,-122 562,-122 556,-116 556,-110 556,-110 556,-44 556,-44 556,-38 562,-32 568,-32"/>
<text text-anchor="middle" x="594.5" y="-106.8" font-family="Arial" font-size="14.00" fill="#000000">mem_ctrl </text>
<text text-anchor="middle" x="594.5" y="-91.8" font-family="Arial" font-size="14.00" fill="#000000">: MemCtrl</text>
</a>
</g>
</g>
<g id="clust28" class="cluster">
<title>cluster_system_PciBridge</title>
<g id="a_clust28"><a xlink:title="eventq_index=0">
<path fill="#bab6ae" stroke="#000000" d="M137,-306C137,-306 1167,-306 1167,-306 1173,-306 1179,-312 1179,-318 1179,-318 1179,-384 1179,-384 1179,-390 1173,-396 1167,-396 1167,-396 137,-396 137,-396 131,-396 125,-390 125,-384 125,-384 125,-318 125,-318 125,-312 131,-306 137,-306"/>
<text text-anchor="middle" x="652" y="-380.8" font-family="Arial" font-size="14.00" fill="#000000">PciBridge </text>
<text text-anchor="middle" x="652" y="-365.8" font-family="Arial" font-size="14.00" fill="#000000">: PciBridge</text>
</a>
</g>
</g>
<!-- system_system_port -->
<g id="node1" class="node">
<title>system_system_port</title>
<path fill="#b6b8bc" stroke="#000000" d="M103.5,-350C103.5,-350 36.5,-350 36.5,-350 30.5,-350 24.5,-344 24.5,-338 24.5,-338 24.5,-326 24.5,-326 24.5,-320 30.5,-314 36.5,-314 36.5,-314 103.5,-314 103.5,-314 109.5,-314 115.5,-320 115.5,-326 115.5,-326 115.5,-338 115.5,-338 115.5,-344 109.5,-350 103.5,-350"/>
<text text-anchor="middle" x="70" y="-328.3" font-family="Arial" font-size="14.00" fill="#000000">system_port</text>
</g>
<!-- system_membus_cpu_side_ports -->
<g id="node7" class="node">
<title>system_membus_cpu_side_ports</title>
<path fill="#586070" stroke="#000000" d="M298,-220C298,-220 214,-220 214,-220 208,-220 202,-214 202,-208 202,-208 202,-196 202,-196 202,-190 208,-184 214,-184 214,-184 298,-184 298,-184 304,-184 310,-190 310,-196 310,-196 310,-208 310,-208 310,-214 304,-220 298,-220"/>
<text text-anchor="middle" x="256" y="-198.3" font-family="Arial" font-size="14.00" fill="#000000">cpu_side_ports</text>
</g>
<!-- system_system_port&#45;&gt;system_membus_cpu_side_ports -->
<g id="edge1" class="edge">
<title>system_system_port&#45;&gt;system_membus_cpu_side_ports</title>
<path fill="none" stroke="black" d="M95.08,-313.74C128.04,-291.06 186.02,-251.16 222.64,-225.96"/>
<polygon fill="black" stroke="black" points="224.76,-228.75 231.02,-220.19 220.79,-222.98 224.76,-228.75"/>
</g>
<!-- system_cpu_icache_port -->
<g id="node2" class="node">
<title>system_cpu_icache_port</title>
<path fill="#959ead" stroke="#000000" d="M216,-76C216,-76 154,-76 154,-76 148,-76 142,-70 142,-64 142,-64 142,-52 142,-52 142,-46 148,-40 154,-40 154,-40 216,-40 216,-40 222,-40 228,-46 228,-52 228,-52 228,-64 228,-64 228,-70 222,-76 216,-76"/>
<text text-anchor="middle" x="185" y="-54.3" font-family="Arial" font-size="14.00" fill="#000000">icache_port</text>
</g>
<!-- system_cpu_dcache_port -->
<g id="node3" class="node">
<title>system_cpu_dcache_port</title>
<path fill="#959ead" stroke="#000000" d="M111.5,-76C111.5,-76 44.5,-76 44.5,-76 38.5,-76 32.5,-70 32.5,-64 32.5,-64 32.5,-52 32.5,-52 32.5,-46 38.5,-40 44.5,-40 44.5,-40 111.5,-40 111.5,-40 117.5,-40 123.5,-46 123.5,-52 123.5,-52 123.5,-64 123.5,-64 123.5,-70 117.5,-76 111.5,-76"/>
<text text-anchor="middle" x="78" y="-54.3" font-family="Arial" font-size="14.00" fill="#000000">dcache_port</text>
</g>
<!-- system_cpu_interrupts_int_requestor -->
<g id="node4" class="node">
<title>system_cpu_interrupts_int_requestor</title>
<path fill="#94918b" stroke="#000000" d="M329.5,-76C329.5,-76 258.5,-76 258.5,-76 252.5,-76 246.5,-70 246.5,-64 246.5,-64 246.5,-52 246.5,-52 246.5,-46 252.5,-40 258.5,-40 258.5,-40 329.5,-40 329.5,-40 335.5,-40 341.5,-46 341.5,-52 341.5,-52 341.5,-64 341.5,-64 341.5,-70 335.5,-76 329.5,-76"/>
<text text-anchor="middle" x="294" y="-54.3" font-family="Arial" font-size="14.00" fill="#000000">int_requestor</text>
</g>
<!-- system_cpu_interrupts_int_responder -->
<g id="node5" class="node">
<title>system_cpu_interrupts_int_responder</title>
<path fill="#94918b" stroke="#000000" d="M519.5,-76C519.5,-76 444.5,-76 444.5,-76 438.5,-76 432.5,-70 432.5,-64 432.5,-64 432.5,-52 432.5,-52 432.5,-46 438.5,-40 444.5,-40 444.5,-40 519.5,-40 519.5,-40 525.5,-40 531.5,-46 531.5,-52 531.5,-52 531.5,-64 531.5,-64 531.5,-70 525.5,-76 519.5,-76"/>
<text text-anchor="middle" x="482" y="-54.3" font-family="Arial" font-size="14.00" fill="#000000">int_responder</text>
</g>
<!-- system_cpu_interrupts_pio -->
<g id="node6" class="node">
<title>system_cpu_interrupts_pio</title>
<path fill="#94918b" stroke="#000000" d="M402,-76C402,-76 372,-76 372,-76 366,-76 360,-70 360,-64 360,-64 360,-52 360,-52 360,-46 366,-40 372,-40 372,-40 402,-40 402,-40 408,-40 414,-46 414,-52 414,-52 414,-64 414,-64 414,-70 408,-76 402,-76"/>
<text text-anchor="middle" x="387" y="-54.3" font-family="Arial" font-size="14.00" fill="#000000">pio</text>
</g>
<!-- system_membus_cpu_side_ports&#45;&gt;system_cpu_icache_port -->
<g id="edge2" class="edge">
<title>system_membus_cpu_side_ports&#45;&gt;system_cpu_icache_port</title>
<path fill="none" stroke="black" d="M238.28,-175.29C236.78,-172.86 235.33,-170.4 234,-168 216.63,-136.59 200.36,-97.85 191.63,-76.04"/>
<polygon fill="black" stroke="black" points="235.44,-177.36 243.8,-183.87 241.33,-173.57 235.44,-177.36"/>
</g>
<!-- system_membus_cpu_side_ports&#45;&gt;system_cpu_dcache_port -->
<g id="edge3" class="edge">
<title>system_membus_cpu_side_ports&#45;&gt;system_cpu_dcache_port</title>
<path fill="none" stroke="black" d="M191.92,-194.3C171.38,-189.56 149.66,-181.55 133,-168 103.56,-144.06 88.4,-100.31 81.95,-76.15"/>
<polygon fill="black" stroke="black" points="191.38,-197.76 201.88,-196.37 192.8,-190.91 191.38,-197.76"/>
</g>
<!-- system_membus_cpu_side_ports&#45;&gt;system_cpu_interrupts_int_requestor -->
<g id="edge4" class="edge">
<title>system_membus_cpu_side_ports&#45;&gt;system_cpu_interrupts_int_requestor</title>
<path fill="none" stroke="black" d="M263.21,-174.06C270.91,-145.28 282.89,-100.53 289.4,-76.19"/>
<polygon fill="black" stroke="black" points="259.79,-173.31 260.58,-183.87 266.55,-175.12 259.79,-173.31"/>
</g>
<!-- system_membus_mem_side_ports -->
<g id="node8" class="node">
<title>system_membus_mem_side_ports</title>
<path fill="#586070" stroke="#000000" d="M434,-220C434,-220 340,-220 340,-220 334,-220 328,-214 328,-208 328,-208 328,-196 328,-196 328,-190 334,-184 340,-184 340,-184 434,-184 434,-184 440,-184 446,-190 446,-196 446,-196 446,-208 446,-208 446,-214 440,-220 434,-220"/>
<text text-anchor="middle" x="387" y="-198.3" font-family="Arial" font-size="14.00" fill="#000000">mem_side_ports</text>
</g>
<!-- system_membus_mem_side_ports&#45;&gt;system_cpu_interrupts_int_responder -->
<g id="edge6" class="edge">
<title>system_membus_mem_side_ports&#45;&gt;system_cpu_interrupts_int_responder</title>
<path fill="none" stroke="black" d="M407.98,-183.93C413.24,-179.1 418.62,-173.62 423,-168 443.15,-142.17 460.2,-108.51 470.71,-85.47"/>
<polygon fill="black" stroke="black" points="473.93,-86.86 474.81,-76.3 467.53,-84 473.93,-86.86"/>
</g>
<!-- system_membus_mem_side_ports&#45;&gt;system_cpu_interrupts_pio -->
<g id="edge5" class="edge">
<title>system_membus_mem_side_ports&#45;&gt;system_cpu_interrupts_pio</title>
<path fill="none" stroke="black" d="M387,-183.87C387,-159.67 387,-115.21 387,-86.39"/>
<polygon fill="black" stroke="black" points="390.5,-86.19 387,-76.19 383.5,-86.19 390.5,-86.19"/>
</g>
<!-- system_mem_ctrl_port -->
<g id="node9" class="node">
<title>system_mem_ctrl_port</title>
<path fill="#94918b" stroke="#000000" d="M606,-76C606,-76 576,-76 576,-76 570,-76 564,-70 564,-64 564,-64 564,-52 564,-52 564,-46 570,-40 576,-40 576,-40 606,-40 606,-40 612,-40 618,-46 618,-52 618,-52 618,-64 618,-64 618,-70 612,-76 606,-76"/>
<text text-anchor="middle" x="591" y="-54.3" font-family="Arial" font-size="14.00" fill="#000000">port</text>
</g>
<!-- system_membus_mem_side_ports&#45;&gt;system_mem_ctrl_port -->
<g id="edge7" class="edge">
<title>system_membus_mem_side_ports&#45;&gt;system_mem_ctrl_port</title>
<path fill="none" stroke="black" d="M446.02,-194.3C484.02,-188.93 529.01,-180.25 544,-168 568.99,-147.57 580.99,-111.34 586.55,-86.29"/>
<polygon fill="black" stroke="black" points="590.01,-86.81 588.55,-76.31 583.15,-85.43 590.01,-86.81"/>
</g>
<!-- system_PciBridge_receiveUpPort -->
<g id="node10" class="node">
<title>system_PciBridge_receiveUpPort</title>
<path fill="#94918b" stroke="#000000" d="M1159,-350C1159,-350 1081,-350 1081,-350 1075,-350 1069,-344 1069,-338 1069,-338 1069,-326 1069,-326 1069,-320 1075,-314 1081,-314 1081,-314 1159,-314 1159,-314 1165,-314 1171,-320 1171,-326 1171,-326 1171,-338 1171,-338 1171,-344 1165,-350 1159,-350"/>
<text text-anchor="middle" x="1120" y="-328.3" font-family="Arial" font-size="14.00" fill="#000000">receiveUpPort</text>
</g>
<!-- system_PciBridge_receiveDownPort1 -->
<g id="node11" class="node">
<title>system_PciBridge_receiveDownPort1</title>
<path fill="#94918b" stroke="#000000" d="M1038.5,-350C1038.5,-350 935.5,-350 935.5,-350 929.5,-350 923.5,-344 923.5,-338 923.5,-338 923.5,-326 923.5,-326 923.5,-320 929.5,-314 935.5,-314 935.5,-314 1038.5,-314 1038.5,-314 1044.5,-314 1050.5,-320 1050.5,-326 1050.5,-326 1050.5,-338 1050.5,-338 1050.5,-344 1044.5,-350 1038.5,-350"/>
<text text-anchor="middle" x="987" y="-328.3" font-family="Arial" font-size="14.00" fill="#000000">receiveDownPort1</text>
</g>
<!-- system_PciBridge_receiveDownPort2 -->
<g id="node12" class="node">
<title>system_PciBridge_receiveDownPort2</title>
<path fill="#94918b" stroke="#000000" d="M893.5,-350C893.5,-350 790.5,-350 790.5,-350 784.5,-350 778.5,-344 778.5,-338 778.5,-338 778.5,-326 778.5,-326 778.5,-320 784.5,-314 790.5,-314 790.5,-314 893.5,-314 893.5,-314 899.5,-314 905.5,-320 905.5,-326 905.5,-326 905.5,-338 905.5,-338 905.5,-344 899.5,-350 893.5,-350"/>
<text text-anchor="middle" x="842" y="-328.3" font-family="Arial" font-size="14.00" fill="#000000">receiveDownPort2</text>
</g>
<!-- system_PciBridge_receiveDownPort3 -->
<g id="node13" class="node">
<title>system_PciBridge_receiveDownPort3</title>
<path fill="#94918b" stroke="#000000" d="M748.5,-350C748.5,-350 645.5,-350 645.5,-350 639.5,-350 633.5,-344 633.5,-338 633.5,-338 633.5,-326 633.5,-326 633.5,-320 639.5,-314 645.5,-314 645.5,-314 748.5,-314 748.5,-314 754.5,-314 760.5,-320 760.5,-326 760.5,-326 760.5,-338 760.5,-338 760.5,-344 754.5,-350 748.5,-350"/>
<text text-anchor="middle" x="697" y="-328.3" font-family="Arial" font-size="14.00" fill="#000000">receiveDownPort3</text>
</g>
<!-- system_PciBridge_sendUpPort -->
<g id="node14" class="node">
<title>system_PciBridge_sendUpPort</title>
<path fill="#94918b" stroke="#000000" d="M603,-350C603,-350 539,-350 539,-350 533,-350 527,-344 527,-338 527,-338 527,-326 527,-326 527,-320 533,-314 539,-314 539,-314 603,-314 603,-314 609,-314 615,-320 615,-326 615,-326 615,-338 615,-338 615,-344 609,-350 603,-350"/>
<text text-anchor="middle" x="571" y="-328.3" font-family="Arial" font-size="14.00" fill="#000000">sendUpPort</text>
</g>
<!-- system_PciBridge_sendDownPort1 -->
<g id="node15" class="node">
<title>system_PciBridge_sendDownPort1</title>
<path fill="#94918b" stroke="#000000" d="M496.5,-350C496.5,-350 407.5,-350 407.5,-350 401.5,-350 395.5,-344 395.5,-338 395.5,-338 395.5,-326 395.5,-326 395.5,-320 401.5,-314 407.5,-314 407.5,-314 496.5,-314 496.5,-314 502.5,-314 508.5,-320 508.5,-326 508.5,-326 508.5,-338 508.5,-338 508.5,-344 502.5,-350 496.5,-350"/>
<text text-anchor="middle" x="452" y="-328.3" font-family="Arial" font-size="14.00" fill="#000000">sendDownPort1</text>
</g>
<!-- system_PciBridge_sendDownPort2 -->
<g id="node16" class="node">
<title>system_PciBridge_sendDownPort2</title>
<path fill="#94918b" stroke="#000000" d="M365.5,-350C365.5,-350 276.5,-350 276.5,-350 270.5,-350 264.5,-344 264.5,-338 264.5,-338 264.5,-326 264.5,-326 264.5,-320 270.5,-314 276.5,-314 276.5,-314 365.5,-314 365.5,-314 371.5,-314 377.5,-320 377.5,-326 377.5,-326 377.5,-338 377.5,-338 377.5,-344 371.5,-350 365.5,-350"/>
<text text-anchor="middle" x="321" y="-328.3" font-family="Arial" font-size="14.00" fill="#000000">sendDownPort2</text>
</g>
<!-- system_PciBridge_sendDownPort3 -->
<g id="node17" class="node">
<title>system_PciBridge_sendDownPort3</title>
<path fill="#94918b" stroke="#000000" d="M234.5,-350C234.5,-350 145.5,-350 145.5,-350 139.5,-350 133.5,-344 133.5,-338 133.5,-338 133.5,-326 133.5,-326 133.5,-320 139.5,-314 145.5,-314 145.5,-314 234.5,-314 234.5,-314 240.5,-314 246.5,-320 246.5,-326 246.5,-326 246.5,-338 246.5,-338 246.5,-344 240.5,-350 234.5,-350"/>
<text text-anchor="middle" x="190" y="-328.3" font-family="Arial" font-size="14.00" fill="#000000">sendDownPort3</text>
</g>
</g>
</svg>
