<?xml version="1.0" encoding="UTF-8" standalone="no"?>
<!DOCTYPE svg PUBLIC "-//W3C//DTD SVG 1.1//EN"
 "http://www.w3.org/Graphics/SVG/1.1/DTD/svg11.dtd">
<!-- Generated by graphviz version 2.43.0 (0)
 -->
<!-- Title: G Pages: 1 -->
<svg width="875pt" height="458pt"
 viewBox="0.00 0.00 875.00 458.00" xmlns="http://www.w3.org/2000/svg" xmlns:xlink="http://www.w3.org/1999/xlink">
<g id="graph0" class="graph" transform="scale(1 1) rotate(0) translate(4 454)">
<title>G</title>
<polygon fill="white" stroke="transparent" points="-4,4 -4,-454 871,-454 871,4 -4,4"/>
<g id="clust1" class="cluster">
<title>cluster_root</title>
<g id="a_clust1"><a xlink:title="eventq_index=0&#10;full_system=false&#10;sim_quantum=0&#10;time_sync_enable=false&#10;time_sync_period=100000000000&#10;time_sync_spin_threshold=100000000">
<path fill="#bab6ae" stroke="#000000" d="M20,-8C20,-8 847,-8 847,-8 853,-8 859,-14 859,-20 859,-20 859,-430 859,-430 859,-436 853,-442 847,-442 847,-442 20,-442 20,-442 14,-442 8,-436 8,-430 8,-430 8,-20 8,-20 8,-14 14,-8 20,-8"/>
<text text-anchor="middle" x="433.5" y="-426.8" font-family="Arial" font-size="14.00" fill="#000000">root </text>
<text text-anchor="middle" x="433.5" y="-411.8" font-family="Arial" font-size="14.00" fill="#000000">: Root</text>
</a>
</g>
</g>
<g id="clust2" class="cluster">
<title>cluster_system</title>
<g id="a_clust2"><a xlink:title="auto_unlink_shared_backstore=false&#10;cache_line_size=64&#10;eventq_index=0&#10;exit_on_work_items=false&#10;init_param=0&#10;m5ops_base=0&#10;mem_mode=timing&#10;mem_ranges=0:536870912&#10;memories=system.mem_ctrl.dram&#10;mmap_using_noreserve=false&#10;multi_thread=false&#10;&#10;um_work_ids=16&#10;&#13;eadfile=&#10;&#13;edirect_paths=&#10;shadow_rom_ranges=&#10;shared_backstore=&#10;symbolfile=&#10;thermal_components=&#10;thermal_model=Null&#10;work_begin_ckpt_count=0&#10;work_begin_cpu_id_exit=&#45;1&#10;work_begin_exit_count=0&#10;work_cpus_ckpt_count=0&#10;work_end_ckpt_count=0&#10;work_end_exit_count=0&#10;work_item_id=&#45;1&#10;workload=system.workload">
<path fill="#e4e7eb" stroke="#000000" d="M28,-16C28,-16 839,-16 839,-16 845,-16 851,-22 851,-28 851,-28 851,-384 851,-384 851,-390 845,-396 839,-396 839,-396 28,-396 28,-396 22,-396 16,-390 16,-384 16,-384 16,-28 16,-28 16,-22 22,-16 28,-16"/>
<text text-anchor="middle" x="433.5" y="-380.8" font-family="Arial" font-size="14.00" fill="#000000">system </text>
<text text-anchor="middle" x="433.5" y="-365.8" font-family="Arial" font-size="14.00" fill="#000000">: System</text>
</a>
</g>
</g>
<g id="clust6" class="cluster">
<title>cluster_system_cpu</title>
<g id="a_clust6"><a xlink:title="branchPred=Null&#10;checker=Null&#10;clk_domain=system.clk_domain&#10;cpu_id=&#45;1&#10;decoder=system.cpu.decoder&#10;do_checkpoint_insts=true&#10;do_statistics_insts=true&#10;eventq_index=0&#10;function_trace=false&#10;function_trace_start=0&#10;interrupts=system.cpu.interrupts&#10;isa=system.cpu.isa&#10;max_insts_all_threads=0&#10;max_insts_any_thread=0&#10;mmu=system.cpu.mmu&#10;&#10;umThreads=1&#10;power_gating_on_idle=false&#10;power_model=&#10;power_state=system.cpu.power_state&#10;progress_interval=0&#10;pwr_gating_latency=300&#10;simpoint_start_insts=&#10;socket_id=0&#10;switched_out=false&#10;syscallRetryLatency=10000&#10;system=system&#10;tracer=system.cpu.tracer&#10;workload=system.cpu.workload">
<path fill="#bbc6d9" stroke="#000000" d="M36,-24C36,-24 536,-24 536,-24 542,-24 548,-30 548,-36 548,-36 548,-156 548,-156 548,-162 542,-168 536,-168 536,-168 36,-168 36,-168 30,-168 24,-162 24,-156 24,-156 24,-36 24,-36 24,-30 30,-24 36,-24"/>
<text text-anchor="middle" x="286" y="-152.8" font-family="Arial" font-size="14.00" fill="#000000">cpu </text>
<text text-anchor="middle" x="286" y="-137.8" font-family="Arial" font-size="14.00" fill="#000000">: X86TimingSimpleCPU</text>
</a>
</g>
</g>
<g id="clust16" class="cluster">
<title>cluster_system_cpu_interrupts</title>
<g id="a_clust16"><a xlink:title="clk_domain=system.cpu.interrupts.clk_domain&#10;eventq_index=0&#10;int_latency=1000&#10;pio_latency=100000&#10;system=system">
<path fill="#bab6ae" stroke="#000000" d="M250,-32C250,-32 528,-32 528,-32 534,-32 540,-38 540,-44 540,-44 540,-110 540,-110 540,-116 534,-122 528,-122 528,-122 250,-122 250,-122 244,-122 238,-116 238,-110 238,-110 238,-44 238,-44 238,-38 244,-32 250,-32"/>
<text text-anchor="middle" x="389" y="-106.8" font-family="Arial" font-size="14.00" fill="#000000">interrupts </text>
<text text-anchor="middle" x="389" y="-91.8" font-family="Arial" font-size="14.00" fill="#000000">: X86LocalApic</text>
</a>
</g>
</g>
<g id="clust21" class="cluster">
<title>cluster_system_membus</title>
<g id="a_clust21"><a xlink:title="clk_domain=system.clk_domain&#10;eventq_index=0&#10;forward_latency=4&#10;frontend_latency=3&#10;header_latency=1&#10;max_outstanding_snoops=512&#10;max_routing_table_size=512&#10;point_of_coherency=true&#10;point_of_unification=true&#10;power_model=&#10;power_state=system.membus.power_state&#10;&#13;esponse_latency=2&#10;snoop_filter=system.membus.snoop_filter&#10;snoop_response_latency=4&#10;system=system&#10;use_default_range=false&#10;width=16">
<path fill="#6f798c" stroke="#000000" d="M272,-176C272,-176 508,-176 508,-176 514,-176 520,-182 520,-188 520,-188 520,-254 520,-254 520,-260 514,-266 508,-266 508,-266 272,-266 272,-266 266,-266 260,-260 260,-254 260,-254 260,-188 260,-188 260,-182 266,-176 272,-176"/>
<text text-anchor="middle" x="390" y="-250.8" font-family="Arial" font-size="14.00" fill="#000000">membus </text>
<text text-anchor="middle" x="390" y="-235.8" font-family="Arial" font-size="14.00" fill="#000000">: SystemXBar</text>
</a>
</g>
</g>
<g id="clust24" class="cluster">
<title>cluster_system_mem_ctrl</title>
<g id="a_clust24"><a xlink:title="clk_domain=system.clk_domain&#10;command_window=10000&#10;disable_sanity_check=false&#10;dram=system.mem_ctrl.dram&#10;eventq_index=0&#10;mem_sched_policy=frfcfs&#10;min_reads_per_switch=16&#10;min_writes_per_switch=16&#10;power_model=&#10;power_state=system.mem_ctrl.power_state&#10;qos_policy=Null&#10;qos_priorities=1&#10;qos_priority_escalation=false&#10;qos_q_policy=fifo&#10;qos_requestors= &#160;&#160;&#160;&#160;&#160;&#160;&#160;&#160;&#160;&#160;&#160;&#160;&#160;&#160;&#10;qos_syncro_scheduler=false&#10;qos_turnaround_policy=Null&#10;static_backend_latency=10000&#10;static_frontend_latency=10000&#10;system=system&#10;write_high_thresh_perc=85&#10;write_low_thresh_perc=50">
<path fill="#bab6ae" stroke="#000000" d="M778,-32C778,-32 831,-32 831,-32 837,-32 843,-38 843,-44 843,-44 843,-110 843,-110 843,-116 837,-122 831,-122 831,-122 778,-122 778,-122 772,-122 766,-116 766,-110 766,-110 766,-44 766,-44 766,-38 772,-32 778,-32"/>
<text text-anchor="middle" x="804.5" y="-106.8" font-family="Arial" font-size="14.00" fill="#000000">mem_ctrl </text>
<text text-anchor="middle" x="804.5" y="-91.8" font-family="Arial" font-size="14.00" fill="#000000">: MemCtrl</text>
</a>
</g>
</g>
<g id="clust30" class="cluster">
<title>cluster_system_RootComplex</title>
<g id="a_clust30"><a xlink:title="BAR0Size=0&#10;BAR1Size=0&#10;BIST=0&#10;Bar0=0&#10;Bar1=0&#10;BridgeControl=0&#10;CacheLineSize=0&#10;CapabilityPointer=208&#10;ClassCode=6&#10;Command=1031&#10;DeviceId1=40080&#10;DeviceId2=40082&#10;DeviceId3=40084&#10;DeviceId_upstream=33330&#10;ExpansionROMBaseAddress=0&#10;HeaderType=1&#10;IOBase=1&#10;IOBaseUpper=12032&#10;IOLimit=1&#10;IOLimitUpper=12032&#10;InterruptLine=32&#10;InterruptPin=1&#10;LatencyTimer=0&#10;MemoryBase=0&#10;MemoryLimit=0&#10;PXCAPBaseOffset=208&#10;PXCAPCapId=16&#10;PXCAPCapabilities=65&#10;PXCAPCapabilities_downstream=97&#10;PXCAPCapabilities_upstream=81&#10;PXCAPDevCap2=0&#10;PXCAPDevCapabilities=577&#10;PXCAPDevCtrl=4128&#10;PXCAPDevCtrl2=0&#10;PXCAPDevStatus=0&#10;PXCAPLinkCap=16814097&#10;PXCAPLinkCtrl=8&#10;PXCAPLinkStatus=17&#10;PXCAPNextCapability=0&#10;PXCAPRootControl=0&#10;PXCAPRootStatus=0&#10;PrefetchableMemoryBase=0&#10;PrefetchableMemoryBaseUpper=0&#10;PrefetchableMemoryLimit=0&#10;PrefetchableMemoryLimitUpper=0&#10;PrimaryBusNumber=0&#10;ProgIF=0&#10;Revision=0&#10;SecondaryBusNumber=0&#10;SecondaryLatencyTimer=0&#10;SecondaryStatus=0&#10;Status=16&#10;SubClassCode=4&#10;SubordinateBusNumber=0&#10;VendorId=32902&#10;config_latency=20000&#10;delay=0&#10;eventq_index=0&#10;host=system.PciHost&#10;is_switch=0&#10;is_transmit=0&#10;pci_bus=0&#10;pci_dev1=4&#10;pci_dev2=5&#10;pci_dev3=6&#10;pci_func1=0&#10;pci_func2=0&#10;pci_func3=0&#10;pci_upstream_dev=0&#10;pci_upstream_func=0&#10;&#13;c_id=0&#10;&#13;eq_size=16&#10;&#13;esp_size=16">
<path fill="#bab6ae" stroke="#000000" d="M568,-32C568,-32 746,-32 746,-32 752,-32 758,-38 758,-44 758,-44 758,-110 758,-110 758,-116 752,-122 746,-122 746,-122 568,-122 568,-122 562,-122 556,-116 556,-110 556,-110 556,-44 556,-44 556,-38 562,-32 568,-32"/>
<text text-anchor="middle" x="657" y="-106.8" font-family="Arial" font-size="14.00" fill="#000000">RootComplex </text>
<text text-anchor="middle" x="657" y="-91.8" font-family="Arial" font-size="14.00" fill="#000000">: RootComplex</text>
</a>
</g>
</g>
<!-- system_system_port -->
<g id="node1" class="node">
<title>system_system_port</title>
<path fill="#b6b8bc" stroke="#000000" d="M355.5,-350C355.5,-350 288.5,-350 288.5,-350 282.5,-350 276.5,-344 276.5,-338 276.5,-338 276.5,-326 276.5,-326 276.5,-320 282.5,-314 288.5,-314 288.5,-314 355.5,-314 355.5,-314 361.5,-314 367.5,-320 367.5,-326 367.5,-326 367.5,-338 367.5,-338 367.5,-344 361.5,-350 355.5,-350"/>
<text text-anchor="middle" x="322" y="-328.3" font-family="Arial" font-size="14.00" fill="#000000">system_port</text>
</g>
<!-- system_membus_cpu_side_ports -->
<g id="node7" class="node">
<title>system_membus_cpu_side_ports</title>
<path fill="#586070" stroke="#000000" d="M364,-220C364,-220 280,-220 280,-220 274,-220 268,-214 268,-208 268,-208 268,-196 268,-196 268,-190 274,-184 280,-184 280,-184 364,-184 364,-184 370,-184 376,-190 376,-196 376,-196 376,-208 376,-208 376,-214 370,-220 364,-220"/>
<text text-anchor="middle" x="322" y="-198.3" font-family="Arial" font-size="14.00" fill="#000000">cpu_side_ports</text>
</g>
<!-- system_system_port&#45;&gt;system_membus_cpu_side_ports -->
<g id="edge1" class="edge">
<title>system_system_port&#45;&gt;system_membus_cpu_side_ports</title>
<path fill="none" stroke="black" d="M322,-313.74C322,-292.36 322,-255.69 322,-230.44"/>
<polygon fill="black" stroke="black" points="325.5,-230.4 322,-220.4 318.5,-230.4 325.5,-230.4"/>
</g>
<!-- system_cpu_icache_port -->
<g id="node2" class="node">
<title>system_cpu_icache_port</title>
<path fill="#959ead" stroke="#000000" d="M216,-76C216,-76 154,-76 154,-76 148,-76 142,-70 142,-64 142,-64 142,-52 142,-52 142,-46 148,-40 154,-40 154,-40 216,-40 216,-40 222,-40 228,-46 228,-52 228,-52 228,-64 228,-64 228,-70 222,-76 216,-76"/>
<text text-anchor="middle" x="185" y="-54.3" font-family="Arial" font-size="14.00" fill="#000000">icache_port</text>
</g>
<!-- system_cpu_dcache_port -->
<g id="node3" class="node">
<title>system_cpu_dcache_port</title>
<path fill="#959ead" stroke="#000000" d="M111.5,-76C111.5,-76 44.5,-76 44.5,-76 38.5,-76 32.5,-70 32.5,-64 32.5,-64 32.5,-52 32.5,-52 32.5,-46 38.5,-40 44.5,-40 44.5,-40 111.5,-40 111.5,-40 117.5,-40 123.5,-46 123.5,-52 123.5,-52 123.5,-64 123.5,-64 123.5,-70 117.5,-76 111.5,-76"/>
<text text-anchor="middle" x="78" y="-54.3" font-family="Arial" font-size="14.00" fill="#000000">dcache_port</text>
</g>
<!-- system_cpu_interrupts_int_requestor -->
<g id="node4" class="node">
<title>system_cpu_interrupts_int_requestor</title>
<path fill="#94918b" stroke="#000000" d="M329.5,-76C329.5,-76 258.5,-76 258.5,-76 252.5,-76 246.5,-70 246.5,-64 246.5,-64 246.5,-52 246.5,-52 246.5,-46 252.5,-40 258.5,-40 258.5,-40 329.5,-40 329.5,-40 335.5,-40 341.5,-46 341.5,-52 341.5,-52 341.5,-64 341.5,-64 341.5,-70 335.5,-76 329.5,-76"/>
<text text-anchor="middle" x="294" y="-54.3" font-family="Arial" font-size="14.00" fill="#000000">int_requestor</text>
</g>
<!-- system_cpu_interrupts_int_responder -->
<g id="node5" class="node">
<title>system_cpu_interrupts_int_responder</title>
<path fill="#94918b" stroke="#000000" d="M519.5,-76C519.5,-76 444.5,-76 444.5,-76 438.5,-76 432.5,-70 432.5,-64 432.5,-64 432.5,-52 432.5,-52 432.5,-46 438.5,-40 444.5,-40 444.5,-40 519.5,-40 519.5,-40 525.5,-40 531.5,-46 531.5,-52 531.5,-52 531.5,-64 531.5,-64 531.5,-70 525.5,-76 519.5,-76"/>
<text text-anchor="middle" x="482" y="-54.3" font-family="Arial" font-size="14.00" fill="#000000">int_responder</text>
</g>
<!-- system_cpu_interrupts_pio -->
<g id="node6" class="node">
<title>system_cpu_interrupts_pio</title>
<path fill="#94918b" stroke="#000000" d="M402,-76C402,-76 372,-76 372,-76 366,-76 360,-70 360,-64 360,-64 360,-52 360,-52 360,-46 366,-40 372,-40 372,-40 402,-40 402,-40 408,-40 414,-46 414,-52 414,-52 414,-64 414,-64 414,-70 408,-76 402,-76"/>
<text text-anchor="middle" x="387" y="-54.3" font-family="Arial" font-size="14.00" fill="#000000">pio</text>
</g>
<!-- system_membus_cpu_side_ports&#45;&gt;system_cpu_icache_port -->
<g id="edge2" class="edge">
<title>system_membus_cpu_side_ports&#45;&gt;system_cpu_icache_port</title>
<path fill="none" stroke="black" d="M258.51,-184.23C249.59,-179.96 241.07,-174.63 234,-168 207.07,-142.73 193.9,-99.9 188.37,-76.15"/>
<polygon fill="black" stroke="black" points="257.34,-187.54 267.91,-188.32 260.13,-181.12 257.34,-187.54"/>
</g>
<!-- system_membus_cpu_side_ports&#45;&gt;system_cpu_dcache_port -->
<g id="edge3" class="edge">
<title>system_membus_cpu_side_ports&#45;&gt;system_cpu_dcache_port</title>
<path fill="none" stroke="black" d="M257.48,-195.92C210.72,-191.1 152.44,-182.42 133,-168 102.36,-145.27 87.61,-100.62 81.56,-76.11"/>
<polygon fill="black" stroke="black" points="257.27,-199.41 267.57,-196.91 257.96,-192.45 257.27,-199.41"/>
</g>
<!-- system_membus_cpu_side_ports&#45;&gt;system_cpu_interrupts_int_requestor -->
<g id="edge4" class="edge">
<title>system_membus_cpu_side_ports&#45;&gt;system_cpu_interrupts_int_requestor</title>
<path fill="none" stroke="black" d="M316.69,-174.06C311.01,-145.28 302.19,-100.53 297.39,-76.19"/>
<polygon fill="black" stroke="black" points="313.25,-174.74 318.62,-183.87 320.12,-173.38 313.25,-174.74"/>
</g>
<!-- system_RootComplex_request_dma -->
<g id="node11" class="node">
<title>system_RootComplex_request_dma</title>
<path fill="#94918b" stroke="#000000" d="M648,-76C648,-76 576,-76 576,-76 570,-76 564,-70 564,-64 564,-64 564,-52 564,-52 564,-46 570,-40 576,-40 576,-40 648,-40 648,-40 654,-40 660,-46 660,-52 660,-52 660,-64 660,-64 660,-70 654,-76 648,-76"/>
<text text-anchor="middle" x="612" y="-54.3" font-family="Arial" font-size="14.00" fill="#000000">request_dma</text>
</g>
<!-- system_membus_cpu_side_ports&#45;&gt;system_RootComplex_request_dma -->
<g id="edge5" class="edge">
<title>system_membus_cpu_side_ports&#45;&gt;system_RootComplex_request_dma</title>
<path fill="none" stroke="black" d="M368.65,-180.55C374.08,-178.75 379.61,-177.17 385,-176 402.29,-172.24 528.75,-176.97 544,-168 578.8,-147.53 598.38,-101.52 606.87,-76.32"/>
<polygon fill="black" stroke="black" points="367.25,-177.33 359.01,-183.99 369.61,-183.93 367.25,-177.33"/>
</g>
<!-- system_membus_mem_side_ports -->
<g id="node8" class="node">
<title>system_membus_mem_side_ports</title>
<path fill="#586070" stroke="#000000" d="M500,-220C500,-220 406,-220 406,-220 400,-220 394,-214 394,-208 394,-208 394,-196 394,-196 394,-190 400,-184 406,-184 406,-184 500,-184 500,-184 506,-184 512,-190 512,-196 512,-196 512,-208 512,-208 512,-214 506,-220 500,-220"/>
<text text-anchor="middle" x="453" y="-198.3" font-family="Arial" font-size="14.00" fill="#000000">mem_side_ports</text>
</g>
<!-- system_membus_mem_side_ports&#45;&gt;system_cpu_interrupts_int_responder -->
<g id="edge7" class="edge">
<title>system_membus_mem_side_ports&#45;&gt;system_cpu_interrupts_int_responder</title>
<path fill="none" stroke="black" d="M456.5,-183.87C461.46,-159.56 470.6,-114.82 476.48,-86.01"/>
<polygon fill="black" stroke="black" points="479.92,-86.69 478.49,-76.19 473.06,-85.29 479.92,-86.69"/>
</g>
<!-- system_membus_mem_side_ports&#45;&gt;system_cpu_interrupts_pio -->
<g id="edge6" class="edge">
<title>system_membus_mem_side_ports&#45;&gt;system_cpu_interrupts_pio</title>
<path fill="none" stroke="black" d="M435.66,-183.84C431.43,-179.01 427.21,-173.55 424,-168 408.98,-142.01 398.85,-108.99 393.04,-86.14"/>
<polygon fill="black" stroke="black" points="396.36,-85.01 390.6,-76.12 389.56,-86.66 396.36,-85.01"/>
</g>
<!-- system_mem_ctrl_port -->
<g id="node9" class="node">
<title>system_mem_ctrl_port</title>
<path fill="#94918b" stroke="#000000" d="M816,-76C816,-76 786,-76 786,-76 780,-76 774,-70 774,-64 774,-64 774,-52 774,-52 774,-46 780,-40 786,-40 786,-40 816,-40 816,-40 822,-40 828,-46 828,-52 828,-52 828,-64 828,-64 828,-70 822,-76 816,-76"/>
<text text-anchor="middle" x="801" y="-54.3" font-family="Arial" font-size="14.00" fill="#000000">port</text>
</g>
<!-- system_membus_mem_side_ports&#45;&gt;system_mem_ctrl_port -->
<g id="edge8" class="edge">
<title>system_membus_mem_side_ports&#45;&gt;system_mem_ctrl_port</title>
<path fill="none" stroke="black" d="M512.06,-201.95C590.75,-202.01 724.43,-197.57 762,-168 786.87,-148.42 795.9,-111.68 799.17,-86.3"/>
<polygon fill="black" stroke="black" points="802.67,-86.51 800.25,-76.2 795.71,-85.77 802.67,-86.51"/>
</g>
<!-- system_RootComplex_response -->
<g id="node10" class="node">
<title>system_RootComplex_response</title>
<path fill="#94918b" stroke="#000000" d="M738,-76C738,-76 690,-76 690,-76 684,-76 678,-70 678,-64 678,-64 678,-52 678,-52 678,-46 684,-40 690,-40 690,-40 738,-40 738,-40 744,-40 750,-46 750,-52 750,-52 750,-64 750,-64 750,-70 744,-76 738,-76"/>
<text text-anchor="middle" x="714" y="-54.3" font-family="Arial" font-size="14.00" fill="#000000">response</text>
</g>
<!-- system_membus_mem_side_ports&#45;&gt;system_RootComplex_response -->
<g id="edge9" class="edge">
<title>system_membus_mem_side_ports&#45;&gt;system_RootComplex_response</title>
<path fill="none" stroke="black" d="M512.05,-198.41C567.45,-194.87 645.24,-186.65 669,-168 694.37,-148.09 705.55,-111.42 710.41,-86.15"/>
<polygon fill="black" stroke="black" points="713.89,-86.55 712.12,-76.1 706.99,-85.37 713.89,-86.55"/>
</g>
</g>
</svg>
