<?xml version="1.0" encoding="UTF-8" standalone="no"?>
<!DOCTYPE svg PUBLIC "-//W3C//DTD SVG 1.1//EN"
 "http://www.w3.org/Graphics/SVG/1.1/DTD/svg11.dtd">
<!-- Generated by graphviz version 2.43.0 (0)
 -->
<!-- Title: G Pages: 1 -->
<svg width="2554pt" height="504pt"
 viewBox="0.00 0.00 2554.00 504.00" xmlns="http://www.w3.org/2000/svg" xmlns:xlink="http://www.w3.org/1999/xlink">
<g id="graph0" class="graph" transform="scale(1 1) rotate(0) translate(4 500)">
<title>G</title>
<polygon fill="white" stroke="transparent" points="-4,4 -4,-500 2550,-500 2550,4 -4,4"/>
<g id="clust1" class="cluster">
<title>cluster_root</title>
<g id="a_clust1"><a xlink:title="eventq_index=0&#10;full_system=false&#10;sim_quantum=0&#10;time_sync_enable=false&#10;time_sync_period=100000000000&#10;time_sync_spin_threshold=100000000">
<path fill="#bab6ae" stroke="#000000" d="M20,-8C20,-8 2526,-8 2526,-8 2532,-8 2538,-14 2538,-20 2538,-20 2538,-476 2538,-476 2538,-482 2532,-488 2526,-488 2526,-488 20,-488 20,-488 14,-488 8,-482 8,-476 8,-476 8,-20 8,-20 8,-14 14,-8 20,-8"/>
<text text-anchor="middle" x="1273" y="-472.8" font-family="Arial" font-size="14.00" fill="#000000">root </text>
<text text-anchor="middle" x="1273" y="-457.8" font-family="Arial" font-size="14.00" fill="#000000">: Root</text>
</a>
</g>
</g>
<g id="clust2" class="cluster">
<title>cluster_system</title>
<g id="a_clust2"><a xlink:title="auto_unlink_shared_backstore=false&#10;cache_line_size=64&#10;eventq_index=0&#10;exit_on_work_items=false&#10;init_param=0&#10;m5ops_base=0&#10;mem_mode=timing&#10;mem_ranges=0:536870912&#10;memories=system.mem_ctrl.dram&#10;mmap_using_noreserve=false&#10;multi_thread=false&#10;&#10;um_work_ids=16&#10;&#13;eadfile=&#10;&#13;edirect_paths=&#10;shadow_rom_ranges=&#10;shared_backstore=&#10;symbolfile=&#10;thermal_components=&#10;thermal_model=Null&#10;work_begin_ckpt_count=0&#10;work_begin_cpu_id_exit=&#45;1&#10;work_begin_exit_count=0&#10;work_cpus_ckpt_count=0&#10;work_end_ckpt_count=0&#10;work_end_exit_count=0&#10;work_item_id=&#45;1&#10;workload=system.workload">
<path fill="#e4e7eb" stroke="#000000" d="M28,-16C28,-16 2518,-16 2518,-16 2524,-16 2530,-22 2530,-28 2530,-28 2530,-430 2530,-430 2530,-436 2524,-442 2518,-442 2518,-442 28,-442 28,-442 22,-442 16,-436 16,-430 16,-430 16,-28 16,-28 16,-22 22,-16 28,-16"/>
<text text-anchor="middle" x="1273" y="-426.8" font-family="Arial" font-size="14.00" fill="#000000">system </text>
<text text-anchor="middle" x="1273" y="-411.8" font-family="Arial" font-size="14.00" fill="#000000">: System</text>
</a>
</g>
</g>
<g id="clust6" class="cluster">
<title>cluster_system_cpu</title>
<g id="a_clust6"><a xlink:title="branchPred=Null&#10;checker=Null&#10;clk_domain=system.clk_domain&#10;cpu_id=&#45;1&#10;decoder=system.cpu.decoder&#10;do_checkpoint_insts=true&#10;do_statistics_insts=true&#10;eventq_index=0&#10;function_trace=false&#10;function_trace_start=0&#10;interrupts=system.cpu.interrupts&#10;isa=system.cpu.isa&#10;max_insts_all_threads=0&#10;max_insts_any_thread=0&#10;mmu=system.cpu.mmu&#10;&#10;umThreads=1&#10;power_gating_on_idle=false&#10;power_model=&#10;power_state=system.cpu.power_state&#10;progress_interval=0&#10;pwr_gating_latency=300&#10;simpoint_start_insts=&#10;socket_id=0&#10;switched_out=false&#10;syscallRetryLatency=10000&#10;system=system&#10;tracer=system.cpu.tracer&#10;workload=system.cpu.workload">
<path fill="#bbc6d9" stroke="#000000" d="M36,-24C36,-24 536,-24 536,-24 542,-24 548,-30 548,-36 548,-36 548,-156 548,-156 548,-162 542,-168 536,-168 536,-168 36,-168 36,-168 30,-168 24,-162 24,-156 24,-156 24,-36 24,-36 24,-30 30,-24 36,-24"/>
<text text-anchor="middle" x="286" y="-152.8" font-family="Arial" font-size="14.00" fill="#000000">cpu </text>
<text text-anchor="middle" x="286" y="-137.8" font-family="Arial" font-size="14.00" fill="#000000">: X86TimingSimpleCPU</text>
</a>
</g>
</g>
<g id="clust16" class="cluster">
<title>cluster_system_cpu_interrupts</title>
<g id="a_clust16"><a xlink:title="clk_domain=system.cpu.interrupts.clk_domain&#10;eventq_index=0&#10;int_latency=1000&#10;pio_latency=100000&#10;system=system">
<path fill="#bab6ae" stroke="#000000" d="M250,-32C250,-32 528,-32 528,-32 534,-32 540,-38 540,-44 540,-44 540,-110 540,-110 540,-116 534,-122 528,-122 528,-122 250,-122 250,-122 244,-122 238,-116 238,-110 238,-110 238,-44 238,-44 238,-38 244,-32 250,-32"/>
<text text-anchor="middle" x="389" y="-106.8" font-family="Arial" font-size="14.00" fill="#000000">interrupts </text>
<text text-anchor="middle" x="389" y="-91.8" font-family="Arial" font-size="14.00" fill="#000000">: X86LocalApic</text>
</a>
</g>
</g>
<g id="clust21" class="cluster">
<title>cluster_system_membus</title>
<g id="a_clust21"><a xlink:title="clk_domain=system.clk_domain&#10;eventq_index=0&#10;forward_latency=4&#10;frontend_latency=3&#10;header_latency=1&#10;max_outstanding_snoops=512&#10;max_routing_table_size=512&#10;point_of_coherency=true&#10;point_of_unification=true&#10;power_model=&#10;power_state=system.membus.power_state&#10;&#13;esponse_latency=2&#10;snoop_filter=system.membus.snoop_filter&#10;snoop_response_latency=4&#10;system=system&#10;use_default_range=false&#10;width=16">
<path fill="#6f798c" stroke="#000000" d="M36,-176C36,-176 272,-176 272,-176 278,-176 284,-182 284,-188 284,-188 284,-254 284,-254 284,-260 278,-266 272,-266 272,-266 36,-266 36,-266 30,-266 24,-260 24,-254 24,-254 24,-188 24,-188 24,-182 30,-176 36,-176"/>
<text text-anchor="middle" x="154" y="-250.8" font-family="Arial" font-size="14.00" fill="#000000">membus </text>
<text text-anchor="middle" x="154" y="-235.8" font-family="Arial" font-size="14.00" fill="#000000">: SystemXBar</text>
</a>
</g>
</g>
<g id="clust24" class="cluster">
<title>cluster_system_mem_ctrl</title>
<g id="a_clust24"><a xlink:title="clk_domain=system.clk_domain&#10;command_window=10000&#10;disable_sanity_check=false&#10;dram=system.mem_ctrl.dram&#10;eventq_index=0&#10;mem_sched_policy=frfcfs&#10;min_reads_per_switch=16&#10;min_writes_per_switch=16&#10;power_model=&#10;power_state=system.mem_ctrl.power_state&#10;qos_policy=Null&#10;qos_priorities=1&#10;qos_priority_escalation=false&#10;qos_q_policy=fifo&#10;qos_requestors= &#160;&#160;&#160;&#160;&#160;&#160;&#160;&#160;&#160;&#160;&#160;&#160;&#160;&#160;&#10;qos_syncro_scheduler=false&#10;qos_turnaround_policy=Null&#10;static_backend_latency=10000&#10;static_frontend_latency=10000&#10;system=system&#10;write_high_thresh_perc=85&#10;write_low_thresh_perc=50">
<path fill="#bab6ae" stroke="#000000" d="M568,-32C568,-32 621,-32 621,-32 627,-32 633,-38 633,-44 633,-44 633,-110 633,-110 633,-116 627,-122 621,-122 621,-122 568,-122 568,-122 562,-122 556,-116 556,-110 556,-110 556,-44 556,-44 556,-38 562,-32 568,-32"/>
<text text-anchor="middle" x="594.5" y="-106.8" font-family="Arial" font-size="14.00" fill="#000000">mem_ctrl </text>
<text text-anchor="middle" x="594.5" y="-91.8" font-family="Arial" font-size="14.00" fill="#000000">: MemCtrl</text>
</a>
</g>
</g>
<g id="clust28" class="cluster">
<title>cluster_system_pcie1</title>
<g id="a_clust28"><a xlink:title="delay=0&#10;delay_var=0&#10;eventq_index=0&#10;&#10;anes=2&#10;max_queue_size=10&#10;mps=5&#10;speed=5.0">
<path fill="#bab6ae" stroke="#000000" d="M640,-176C640,-176 1238,-176 1238,-176 1244,-176 1250,-182 1250,-188 1250,-188 1250,-254 1250,-254 1250,-260 1244,-266 1238,-266 1238,-266 640,-266 640,-266 634,-266 628,-260 628,-254 628,-254 628,-188 628,-188 628,-182 634,-176 640,-176"/>
<text text-anchor="middle" x="939" y="-250.8" font-family="Arial" font-size="14.00" fill="#000000">pcie1 </text>
<text text-anchor="middle" x="939" y="-235.8" font-family="Arial" font-size="14.00" fill="#000000">: PCIELink</text>
</a>
</g>
</g>
<g id="clust29" class="cluster">
<title>cluster_system_pcie2</title>
<g id="a_clust29"><a xlink:title="delay=0&#10;delay_var=0&#10;eventq_index=0&#10;&#10;anes=2&#10;max_queue_size=10&#10;mps=5&#10;speed=5.0">
<path fill="#bab6ae" stroke="#000000" d="M2242,-176C2242,-176 2510,-176 2510,-176 2516,-176 2522,-182 2522,-188 2522,-188 2522,-254 2522,-254 2522,-260 2516,-266 2510,-266 2510,-266 2242,-266 2242,-266 2236,-266 2230,-260 2230,-254 2230,-254 2230,-188 2230,-188 2230,-182 2236,-176 2242,-176"/>
<text text-anchor="middle" x="2376" y="-250.8" font-family="Arial" font-size="14.00" fill="#000000">pcie2 </text>
<text text-anchor="middle" x="2376" y="-235.8" font-family="Arial" font-size="14.00" fill="#000000">: PCIELink</text>
</a>
</g>
</g>
<g id="clust30" class="cluster">
<title>cluster_system_pcie3</title>
<g id="a_clust30"><a xlink:title="delay=0&#10;delay_var=0&#10;eventq_index=0&#10;&#10;anes=2&#10;max_queue_size=10&#10;mps=5&#10;speed=5.0">
<path fill="#bab6ae" stroke="#000000" d="M1942,-176C1942,-176 2210,-176 2210,-176 2216,-176 2222,-182 2222,-188 2222,-188 2222,-254 2222,-254 2222,-260 2216,-266 2210,-266 2210,-266 1942,-266 1942,-266 1936,-266 1930,-260 1930,-254 1930,-254 1930,-188 1930,-188 1930,-182 1936,-176 1942,-176"/>
<text text-anchor="middle" x="2076" y="-250.8" font-family="Arial" font-size="14.00" fill="#000000">pcie3 </text>
<text text-anchor="middle" x="2076" y="-235.8" font-family="Arial" font-size="14.00" fill="#000000">: PCIELink</text>
</a>
</g>
</g>
<g id="clust31" class="cluster">
<title>cluster_system_pcie4</title>
<g id="a_clust31"><a xlink:title="delay=0&#10;delay_var=0&#10;eventq_index=0&#10;&#10;anes=2&#10;max_queue_size=10&#10;mps=5&#10;speed=5.0">
<path fill="#bab6ae" stroke="#000000" d="M1270,-176C1270,-176 1574,-176 1574,-176 1580,-176 1586,-182 1586,-188 1586,-188 1586,-254 1586,-254 1586,-260 1580,-266 1574,-266 1574,-266 1270,-266 1270,-266 1264,-266 1258,-260 1258,-254 1258,-254 1258,-188 1258,-188 1258,-182 1264,-176 1270,-176"/>
<text text-anchor="middle" x="1422" y="-250.8" font-family="Arial" font-size="14.00" fill="#000000">pcie4 </text>
<text text-anchor="middle" x="1422" y="-235.8" font-family="Arial" font-size="14.00" fill="#000000">: PCIELink</text>
</a>
</g>
</g>
<g id="clust32" class="cluster">
<title>cluster_system_pcie5</title>
<g id="a_clust32"><a xlink:title="delay=0&#10;delay_var=0&#10;eventq_index=0&#10;&#10;anes=2&#10;max_queue_size=10&#10;mps=5&#10;speed=5.0">
<path fill="#bab6ae" stroke="#000000" d="M1606,-176C1606,-176 1910,-176 1910,-176 1916,-176 1922,-182 1922,-188 1922,-188 1922,-254 1922,-254 1922,-260 1916,-266 1910,-266 1910,-266 1606,-266 1606,-266 1600,-266 1594,-260 1594,-254 1594,-254 1594,-188 1594,-188 1594,-182 1600,-176 1606,-176"/>
<text text-anchor="middle" x="1758" y="-250.8" font-family="Arial" font-size="14.00" fill="#000000">pcie5 </text>
<text text-anchor="middle" x="1758" y="-235.8" font-family="Arial" font-size="14.00" fill="#000000">: PCIELink</text>
</a>
</g>
</g>
<g id="clust33" class="cluster">
<title>cluster_system_pcie6</title>
<g id="a_clust33"><a xlink:title="delay=0&#10;delay_var=0&#10;eventq_index=0&#10;&#10;anes=2&#10;max_queue_size=10&#10;mps=5&#10;speed=5.0">
<path fill="#bab6ae" stroke="#000000" d="M304,-176C304,-176 608,-176 608,-176 614,-176 620,-182 620,-188 620,-188 620,-254 620,-254 620,-260 614,-266 608,-266 608,-266 304,-266 304,-266 298,-266 292,-260 292,-254 292,-254 292,-188 292,-188 292,-182 298,-176 304,-176"/>
<text text-anchor="middle" x="456" y="-250.8" font-family="Arial" font-size="14.00" fill="#000000">pcie6 </text>
<text text-anchor="middle" x="456" y="-235.8" font-family="Arial" font-size="14.00" fill="#000000">: PCIELink</text>
</a>
</g>
</g>
<g id="clust34" class="cluster">
<title>cluster_system_RootComplex</title>
<g id="a_clust34"><a xlink:title="BAR0Size=0&#10;BAR1Size=0&#10;BIST=0&#10;Bar0=0&#10;Bar1=0&#10;BridgeControl=0&#10;CacheLineSize=0&#10;CapabilityPointer=208&#10;ClassCode=6&#10;Command=1031&#10;DeviceId1=40080&#10;DeviceId2=40082&#10;DeviceId3=40084&#10;DeviceId_upstream=33330&#10;ExpansionROMBaseAddress=0&#10;HeaderType=1&#10;IOBase=1&#10;IOBaseUpper=12032&#10;IOLimit=1&#10;IOLimitUpper=12032&#10;InterruptLine=32&#10;InterruptPin=1&#10;LatencyTimer=0&#10;MemoryBase=0&#10;MemoryLimit=0&#10;PXCAPBaseOffset=208&#10;PXCAPCapId=16&#10;PXCAPCapabilities=65&#10;PXCAPCapabilities_downstream=97&#10;PXCAPCapabilities_upstream=81&#10;PXCAPDevCap2=0&#10;PXCAPDevCapabilities=577&#10;PXCAPDevCtrl=4128&#10;PXCAPDevCtrl2=0&#10;PXCAPDevStatus=0&#10;PXCAPLinkCap=16814097&#10;PXCAPLinkCtrl=8&#10;PXCAPLinkStatus=17&#10;PXCAPNextCapability=0&#10;PXCAPRootControl=0&#10;PXCAPRootStatus=0&#10;PrefetchableMemoryBase=0&#10;PrefetchableMemoryBaseUpper=0&#10;PrefetchableMemoryLimit=0&#10;PrefetchableMemoryLimitUpper=0&#10;PrimaryBusNumber=0&#10;ProgIF=0&#10;Revision=0&#10;SecondaryBusNumber=0&#10;SecondaryLatencyTimer=0&#10;SecondaryStatus=0&#10;Status=16&#10;SubClassCode=4&#10;SubordinateBusNumber=0&#10;VendorId=32902&#10;config_latency=20000&#10;delay=0&#10;eventq_index=0&#10;is_switch=0&#10;is_transmit=0&#10;pci_bus=0&#10;pci_dev1=4&#10;pci_dev2=5&#10;pci_dev3=6&#10;pci_func1=0&#10;pci_func2=0&#10;pci_func3=0&#10;pci_upstream_dev=0&#10;pci_upstream_func=0&#10;&#13;c_id=0&#10;&#13;eq_size=16&#10;&#13;esp_size=16">
<path fill="#bab6ae" stroke="#000000" d="M1165,-32C1165,-32 2003,-32 2003,-32 2009,-32 2015,-38 2015,-44 2015,-44 2015,-110 2015,-110 2015,-116 2009,-122 2003,-122 2003,-122 1165,-122 1165,-122 1159,-122 1153,-116 1153,-110 1153,-110 1153,-44 1153,-44 1153,-38 1159,-32 1165,-32"/>
<text text-anchor="middle" x="1584" y="-106.8" font-family="Arial" font-size="14.00" fill="#000000">RootComplex </text>
<text text-anchor="middle" x="1584" y="-91.8" font-family="Arial" font-size="14.00" fill="#000000">: RootComplex</text>
</a>
</g>
</g>
<g id="clust35" class="cluster">
<title>cluster_system_switch</title>
<g id="a_clust35"><a xlink:title="BAR0Size=0&#10;BAR1Size=0&#10;BIST=0&#10;Bar0=0&#10;Bar1=0&#10;BridgeControl=0&#10;CacheLineSize=0&#10;CapabilityPointer=208&#10;ClassCode=6&#10;Command=1031&#10;DeviceId1=33331&#10;DeviceId2=33331&#10;DeviceId3=33331&#10;DeviceId_upstream=33330&#10;ExpansionROMBaseAddress=0&#10;HeaderType=1&#10;IOBase=1&#10;IOBaseUpper=12032&#10;IOLimit=1&#10;IOLimitUpper=12032&#10;InterruptLine=32&#10;InterruptPin=1&#10;LatencyTimer=0&#10;MemoryBase=0&#10;MemoryLimit=0&#10;PXCAPBaseOffset=208&#10;PXCAPCapId=16&#10;PXCAPCapabilities=0&#10;PXCAPCapabilities_downstream=97&#10;PXCAPCapabilities_upstream=81&#10;PXCAPDevCap2=0&#10;PXCAPDevCapabilities=0&#10;PXCAPDevCtrl=4128&#10;PXCAPDevCtrl2=0&#10;PXCAPDevStatus=0&#10;PXCAPLinkCap=16814097&#10;PXCAPLinkCtrl=8&#10;PXCAPLinkStatus=17&#10;PXCAPNextCapability=0&#10;PXCAPRootControl=0&#10;PXCAPRootStatus=0&#10;PrefetchableMemoryBase=0&#10;PrefetchableMemoryBaseUpper=0&#10;PrefetchableMemoryLimit=0&#10;PrefetchableMemoryLimitUpper=0&#10;PrimaryBusNumber=0&#10;ProgIF=0&#10;Revision=0&#10;SecondaryBusNumber=0&#10;SecondaryLatencyTimer=0&#10;SecondaryStatus=0&#10;Status=16&#10;SubClassCode=4&#10;SubordinateBusNumber=0&#10;VendorId=4172&#10;config_latency=20000&#10;delay=0&#10;eventq_index=0&#10;is_switch=1&#10;is_transmit=0&#10;pci_bus=1&#10;pci_dev1=0&#10;pci_dev2=1&#10;pci_dev3=2&#10;pci_func1=0&#10;pci_func2=0&#10;pci_func3=0&#10;pci_upstream_dev=0&#10;pci_upstream_func=0&#10;&#13;c_id=0&#10;&#13;eq_size=16&#10;&#13;esp_size=16">
<path fill="#bab6ae" stroke="#000000" d="M760,-306C760,-306 1598,-306 1598,-306 1604,-306 1610,-312 1610,-318 1610,-318 1610,-384 1610,-384 1610,-390 1604,-396 1598,-396 1598,-396 760,-396 760,-396 754,-396 748,-390 748,-384 748,-384 748,-318 748,-318 748,-312 754,-306 760,-306"/>
<text text-anchor="middle" x="1179" y="-380.8" font-family="Arial" font-size="14.00" fill="#000000">switch </text>
<text text-anchor="middle" x="1179" y="-365.8" font-family="Arial" font-size="14.00" fill="#000000">: PCIESwitch</text>
</a>
</g>
</g>
<!-- system_system_port -->
<g id="node1" class="node">
<title>system_system_port</title>
<path fill="#b6b8bc" stroke="#000000" d="M119.5,-350C119.5,-350 52.5,-350 52.5,-350 46.5,-350 40.5,-344 40.5,-338 40.5,-338 40.5,-326 40.5,-326 40.5,-320 46.5,-314 52.5,-314 52.5,-314 119.5,-314 119.5,-314 125.5,-314 131.5,-320 131.5,-326 131.5,-326 131.5,-338 131.5,-338 131.5,-344 125.5,-350 119.5,-350"/>
<text text-anchor="middle" x="86" y="-328.3" font-family="Arial" font-size="14.00" fill="#000000">system_port</text>
</g>
<!-- system_membus_cpu_side_ports -->
<g id="node7" class="node">
<title>system_membus_cpu_side_ports</title>
<path fill="#586070" stroke="#000000" d="M128,-220C128,-220 44,-220 44,-220 38,-220 32,-214 32,-208 32,-208 32,-196 32,-196 32,-190 38,-184 44,-184 44,-184 128,-184 128,-184 134,-184 140,-190 140,-196 140,-196 140,-208 140,-208 140,-214 134,-220 128,-220"/>
<text text-anchor="middle" x="86" y="-198.3" font-family="Arial" font-size="14.00" fill="#000000">cpu_side_ports</text>
</g>
<!-- system_system_port&#45;&gt;system_membus_cpu_side_ports -->
<g id="edge1" class="edge">
<title>system_system_port&#45;&gt;system_membus_cpu_side_ports</title>
<path fill="none" stroke="black" d="M86,-313.74C86,-292.36 86,-255.69 86,-230.44"/>
<polygon fill="black" stroke="black" points="89.5,-230.4 86,-220.4 82.5,-230.4 89.5,-230.4"/>
</g>
<!-- system_cpu_icache_port -->
<g id="node2" class="node">
<title>system_cpu_icache_port</title>
<path fill="#959ead" stroke="#000000" d="M216,-76C216,-76 154,-76 154,-76 148,-76 142,-70 142,-64 142,-64 142,-52 142,-52 142,-46 148,-40 154,-40 154,-40 216,-40 216,-40 222,-40 228,-46 228,-52 228,-52 228,-64 228,-64 228,-70 222,-76 216,-76"/>
<text text-anchor="middle" x="185" y="-54.3" font-family="Arial" font-size="14.00" fill="#000000">icache_port</text>
</g>
<!-- system_cpu_dcache_port -->
<g id="node3" class="node">
<title>system_cpu_dcache_port</title>
<path fill="#959ead" stroke="#000000" d="M111.5,-76C111.5,-76 44.5,-76 44.5,-76 38.5,-76 32.5,-70 32.5,-64 32.5,-64 32.5,-52 32.5,-52 32.5,-46 38.5,-40 44.5,-40 44.5,-40 111.5,-40 111.5,-40 117.5,-40 123.5,-46 123.5,-52 123.5,-52 123.5,-64 123.5,-64 123.5,-70 117.5,-76 111.5,-76"/>
<text text-anchor="middle" x="78" y="-54.3" font-family="Arial" font-size="14.00" fill="#000000">dcache_port</text>
</g>
<!-- system_cpu_interrupts_int_requestor -->
<g id="node4" class="node">
<title>system_cpu_interrupts_int_requestor</title>
<path fill="#94918b" stroke="#000000" d="M329.5,-76C329.5,-76 258.5,-76 258.5,-76 252.5,-76 246.5,-70 246.5,-64 246.5,-64 246.5,-52 246.5,-52 246.5,-46 252.5,-40 258.5,-40 258.5,-40 329.5,-40 329.5,-40 335.5,-40 341.5,-46 341.5,-52 341.5,-52 341.5,-64 341.5,-64 341.5,-70 335.5,-76 329.5,-76"/>
<text text-anchor="middle" x="294" y="-54.3" font-family="Arial" font-size="14.00" fill="#000000">int_requestor</text>
</g>
<!-- system_cpu_interrupts_int_responder -->
<g id="node5" class="node">
<title>system_cpu_interrupts_int_responder</title>
<path fill="#94918b" stroke="#000000" d="M519.5,-76C519.5,-76 444.5,-76 444.5,-76 438.5,-76 432.5,-70 432.5,-64 432.5,-64 432.5,-52 432.5,-52 432.5,-46 438.5,-40 444.5,-40 444.5,-40 519.5,-40 519.5,-40 525.5,-40 531.5,-46 531.5,-52 531.5,-52 531.5,-64 531.5,-64 531.5,-70 525.5,-76 519.5,-76"/>
<text text-anchor="middle" x="482" y="-54.3" font-family="Arial" font-size="14.00" fill="#000000">int_responder</text>
</g>
<!-- system_cpu_interrupts_pio -->
<g id="node6" class="node">
<title>system_cpu_interrupts_pio</title>
<path fill="#94918b" stroke="#000000" d="M402,-76C402,-76 372,-76 372,-76 366,-76 360,-70 360,-64 360,-64 360,-52 360,-52 360,-46 366,-40 372,-40 372,-40 402,-40 402,-40 408,-40 414,-46 414,-52 414,-52 414,-64 414,-64 414,-70 408,-76 402,-76"/>
<text text-anchor="middle" x="387" y="-54.3" font-family="Arial" font-size="14.00" fill="#000000">pio</text>
</g>
<!-- system_membus_cpu_side_ports&#45;&gt;system_cpu_icache_port -->
<g id="edge2" class="edge">
<title>system_membus_cpu_side_ports&#45;&gt;system_cpu_icache_port</title>
<path fill="none" stroke="black" d="M123.23,-177.7C126.76,-174.68 130.1,-171.43 133,-168 156.83,-139.82 172.47,-98.87 179.92,-76.03"/>
<polygon fill="black" stroke="black" points="120.99,-175.01 115.29,-183.94 125.31,-180.51 120.99,-175.01"/>
</g>
<!-- system_membus_cpu_side_ports&#45;&gt;system_cpu_dcache_port -->
<g id="edge3" class="edge">
<title>system_membus_cpu_side_ports&#45;&gt;system_cpu_dcache_port</title>
<path fill="none" stroke="black" d="M84.46,-173.68C82.84,-144.89 80.33,-100.42 78.97,-76.19"/>
<polygon fill="black" stroke="black" points="80.98,-174.08 85.04,-183.87 87.97,-173.69 80.98,-174.08"/>
</g>
<!-- system_membus_cpu_side_ports&#45;&gt;system_cpu_interrupts_int_requestor -->
<g id="edge4" class="edge">
<title>system_membus_cpu_side_ports&#45;&gt;system_cpu_interrupts_int_requestor</title>
<path fill="none" stroke="black" d="M133.52,-180.46C138.68,-178.74 143.9,-177.2 149,-176 169.41,-171.19 225.8,-179.99 243,-168 274.02,-146.37 286.67,-100.84 291.42,-76.01"/>
<polygon fill="black" stroke="black" points="131.97,-177.3 123.74,-183.96 134.33,-183.89 131.97,-177.3"/>
</g>
<!-- system_RootComplex_request_dma -->
<g id="node29" class="node">
<title>system_RootComplex_request_dma</title>
<path fill="#94918b" stroke="#000000" d="M1245,-76C1245,-76 1173,-76 1173,-76 1167,-76 1161,-70 1161,-64 1161,-64 1161,-52 1161,-52 1161,-46 1167,-40 1173,-40 1173,-40 1245,-40 1245,-40 1251,-40 1257,-46 1257,-52 1257,-52 1257,-64 1257,-64 1257,-70 1251,-76 1245,-76"/>
<text text-anchor="middle" x="1209" y="-54.3" font-family="Arial" font-size="14.00" fill="#000000">request_dma</text>
</g>
<!-- system_membus_cpu_side_ports&#45;&gt;system_RootComplex_request_dma -->
<g id="edge5" class="edge">
<title>system_membus_cpu_side_ports&#45;&gt;system_RootComplex_request_dma</title>
<path fill="none" stroke="black" d="M132.39,-180.44C137.9,-178.64 143.52,-177.09 149,-176 202.18,-165.38 583.05,-173.54 637,-168 833.35,-147.83 1062.92,-95.02 1160.83,-71.09"/>
<polygon fill="black" stroke="black" points="130.89,-177.26 122.63,-183.9 133.23,-183.86 130.89,-177.26"/>
</g>
<!-- system_membus_mem_side_ports -->
<g id="node8" class="node">
<title>system_membus_mem_side_ports</title>
<path fill="#586070" stroke="#000000" d="M264,-220C264,-220 170,-220 170,-220 164,-220 158,-214 158,-208 158,-208 158,-196 158,-196 158,-190 164,-184 170,-184 170,-184 264,-184 264,-184 270,-184 276,-190 276,-196 276,-196 276,-208 276,-208 276,-214 270,-220 264,-220"/>
<text text-anchor="middle" x="217" y="-198.3" font-family="Arial" font-size="14.00" fill="#000000">mem_side_ports</text>
</g>
<!-- system_membus_mem_side_ports&#45;&gt;system_cpu_interrupts_int_responder -->
<g id="edge7" class="edge">
<title>system_membus_mem_side_ports&#45;&gt;system_cpu_interrupts_int_responder</title>
<path fill="none" stroke="black" d="M259.26,-183.96C268.59,-180.81 278.52,-177.91 288,-176 302.73,-173.03 410.32,-176.07 423,-168 451.88,-149.62 467.65,-111.99 475.45,-86.13"/>
<polygon fill="black" stroke="black" points="478.91,-86.77 478.23,-76.2 472.17,-84.88 478.91,-86.77"/>
</g>
<!-- system_membus_mem_side_ports&#45;&gt;system_cpu_interrupts_pio -->
<g id="edge6" class="edge">
<title>system_membus_mem_side_ports&#45;&gt;system_cpu_interrupts_pio</title>
<path fill="none" stroke="black" d="M260.88,-183.92C269.76,-180.93 279.1,-178.11 288,-176 301.73,-172.75 340.11,-176.97 351,-168 375.23,-148.04 383.27,-111.38 385.87,-86.13"/>
<polygon fill="black" stroke="black" points="389.37,-86.34 386.69,-76.09 382.39,-85.77 389.37,-86.34"/>
</g>
<!-- system_mem_ctrl_port -->
<g id="node9" class="node">
<title>system_mem_ctrl_port</title>
<path fill="#94918b" stroke="#000000" d="M606,-76C606,-76 576,-76 576,-76 570,-76 564,-70 564,-64 564,-64 564,-52 564,-52 564,-46 570,-40 576,-40 576,-40 606,-40 606,-40 612,-40 618,-46 618,-52 618,-52 618,-64 618,-64 618,-70 612,-76 606,-76"/>
<text text-anchor="middle" x="591" y="-54.3" font-family="Arial" font-size="14.00" fill="#000000">port</text>
</g>
<!-- system_membus_mem_side_ports&#45;&gt;system_mem_ctrl_port -->
<g id="edge8" class="edge">
<title>system_membus_mem_side_ports&#45;&gt;system_mem_ctrl_port</title>
<path fill="none" stroke="black" d="M258.84,-183.88C268.28,-180.69 278.37,-177.8 288,-176 301.99,-173.38 532.24,-176 544,-168 571.1,-149.56 582.67,-111.95 587.55,-86.11"/>
<polygon fill="black" stroke="black" points="591.01,-86.62 589.2,-76.18 584.1,-85.47 591.01,-86.62"/>
</g>
<!-- system_RootComplex_response -->
<g id="node24" class="node">
<title>system_RootComplex_response</title>
<path fill="#94918b" stroke="#000000" d="M1335,-76C1335,-76 1287,-76 1287,-76 1281,-76 1275,-70 1275,-64 1275,-64 1275,-52 1275,-52 1275,-46 1281,-40 1287,-40 1287,-40 1335,-40 1335,-40 1341,-40 1347,-46 1347,-52 1347,-52 1347,-64 1347,-64 1347,-70 1341,-76 1335,-76"/>
<text text-anchor="middle" x="1311" y="-54.3" font-family="Arial" font-size="14.00" fill="#000000">response</text>
</g>
<!-- system_membus_mem_side_ports&#45;&gt;system_RootComplex_response -->
<g id="edge9" class="edge">
<title>system_membus_mem_side_ports&#45;&gt;system_RootComplex_response</title>
<path fill="none" stroke="black" d="M258.06,-183.97C267.72,-180.69 278.09,-177.74 288,-176 301.38,-173.66 1254.74,-175.6 1266,-168 1292.99,-149.78 1303.82,-112.11 1308.14,-86.2"/>
<polygon fill="black" stroke="black" points="1311.61,-86.65 1309.58,-76.25 1304.69,-85.64 1311.61,-86.65"/>
</g>
<!-- system_pcie1_upstreamResponse -->
<g id="node10" class="node">
<title>system_pcie1_upstreamResponse</title>
<path fill="#94918b" stroke="#000000" d="M1230,-220C1230,-220 1120,-220 1120,-220 1114,-220 1108,-214 1108,-208 1108,-208 1108,-196 1108,-196 1108,-190 1114,-184 1120,-184 1120,-184 1230,-184 1230,-184 1236,-184 1242,-190 1242,-196 1242,-196 1242,-208 1242,-208 1242,-214 1236,-220 1230,-220"/>
<text text-anchor="middle" x="1175" y="-198.3" font-family="Arial" font-size="14.00" fill="#000000">upstreamResponse</text>
</g>
<!-- system_RootComplex_request1 -->
<g id="node25" class="node">
<title>system_RootComplex_request1</title>
<path fill="#94918b" stroke="#000000" d="M1554.5,-76C1554.5,-76 1509.5,-76 1509.5,-76 1503.5,-76 1497.5,-70 1497.5,-64 1497.5,-64 1497.5,-52 1497.5,-52 1497.5,-46 1503.5,-40 1509.5,-40 1509.5,-40 1554.5,-40 1554.5,-40 1560.5,-40 1566.5,-46 1566.5,-52 1566.5,-52 1566.5,-64 1566.5,-64 1566.5,-70 1560.5,-76 1554.5,-76"/>
<text text-anchor="middle" x="1532" y="-54.3" font-family="Arial" font-size="14.00" fill="#000000">request1</text>
</g>
<!-- system_pcie1_upstreamResponse&#45;&gt;system_RootComplex_request1 -->
<g id="edge10" class="edge">
<title>system_pcie1_upstreamResponse&#45;&gt;system_RootComplex_request1</title>
<path fill="none" stroke="black" d="M1231.44,-181.11C1238.95,-179.06 1246.61,-177.27 1254,-176 1266.82,-173.8 1477.34,-175.46 1488,-168 1518.26,-146.82 1527.73,-101.1 1530.68,-76.13"/>
<polygon fill="black" stroke="black" points="1230.32,-177.79 1221.68,-183.92 1232.26,-184.51 1230.32,-177.79"/>
</g>
<!-- system_pcie1_downstreamResponse -->
<g id="node11" class="node">
<title>system_pcie1_downstreamResponse</title>
<path fill="#94918b" stroke="#000000" d="M1078,-220C1078,-220 950,-220 950,-220 944,-220 938,-214 938,-208 938,-208 938,-196 938,-196 938,-190 944,-184 950,-184 950,-184 1078,-184 1078,-184 1084,-184 1090,-190 1090,-196 1090,-196 1090,-208 1090,-208 1090,-214 1084,-220 1078,-220"/>
<text text-anchor="middle" x="1014" y="-198.3" font-family="Arial" font-size="14.00" fill="#000000">downstreamResponse</text>
</g>
<!-- system_pcie1_upstreamRequest -->
<g id="node12" class="node">
<title>system_pcie1_upstreamRequest</title>
<path fill="#94918b" stroke="#000000" d="M908,-220C908,-220 808,-220 808,-220 802,-220 796,-214 796,-208 796,-208 796,-196 796,-196 796,-190 802,-184 808,-184 808,-184 908,-184 908,-184 914,-184 920,-190 920,-196 920,-196 920,-208 920,-208 920,-214 914,-220 908,-220"/>
<text text-anchor="middle" x="858" y="-198.3" font-family="Arial" font-size="14.00" fill="#000000">upstreamRequest</text>
</g>
<!-- system_RootComplex_response_dma1 -->
<g id="node28" class="node">
<title>system_RootComplex_response_dma1</title>
<path fill="#94918b" stroke="#000000" d="M1467,-76C1467,-76 1377,-76 1377,-76 1371,-76 1365,-70 1365,-64 1365,-64 1365,-52 1365,-52 1365,-46 1371,-40 1377,-40 1377,-40 1467,-40 1467,-40 1473,-40 1479,-46 1479,-52 1479,-52 1479,-64 1479,-64 1479,-70 1473,-76 1467,-76"/>
<text text-anchor="middle" x="1422" y="-54.3" font-family="Arial" font-size="14.00" fill="#000000">response_dma1</text>
</g>
<!-- system_pcie1_upstreamRequest&#45;&gt;system_RootComplex_response_dma1 -->
<g id="edge11" class="edge">
<title>system_pcie1_upstreamRequest&#45;&gt;system_RootComplex_response_dma1</title>
<path fill="none" stroke="black" d="M899.45,-183.92C909,-180.69 919.23,-177.76 929,-176 952.35,-171.78 1335.44,-179.84 1356,-168 1386.8,-150.26 1404.94,-111.85 1414.17,-85.71"/>
<polygon fill="black" stroke="black" points="1417.56,-86.61 1417.39,-76.02 1410.92,-84.41 1417.56,-86.61"/>
</g>
<!-- system_pcie1_downstreamRequest -->
<g id="node13" class="node">
<title>system_pcie1_downstreamRequest</title>
<path fill="#94918b" stroke="#000000" d="M765.5,-220C765.5,-220 648.5,-220 648.5,-220 642.5,-220 636.5,-214 636.5,-208 636.5,-208 636.5,-196 636.5,-196 636.5,-190 642.5,-184 648.5,-184 648.5,-184 765.5,-184 765.5,-184 771.5,-184 777.5,-190 777.5,-196 777.5,-196 777.5,-208 777.5,-208 777.5,-214 771.5,-220 765.5,-220"/>
<text text-anchor="middle" x="707" y="-198.3" font-family="Arial" font-size="14.00" fill="#000000">downstreamRequest</text>
</g>
<!-- system_pcie2_upstreamResponse -->
<g id="node14" class="node">
<title>system_pcie2_upstreamResponse</title>
<path fill="#94918b" stroke="#000000" d="M2502,-220C2502,-220 2392,-220 2392,-220 2386,-220 2380,-214 2380,-208 2380,-208 2380,-196 2380,-196 2380,-190 2386,-184 2392,-184 2392,-184 2502,-184 2502,-184 2508,-184 2514,-190 2514,-196 2514,-196 2514,-208 2514,-208 2514,-214 2508,-220 2502,-220"/>
<text text-anchor="middle" x="2447" y="-198.3" font-family="Arial" font-size="14.00" fill="#000000">upstreamResponse</text>
</g>
<!-- system_RootComplex_request2 -->
<g id="node26" class="node">
<title>system_RootComplex_request2</title>
<path fill="#94918b" stroke="#000000" d="M1994.5,-76C1994.5,-76 1949.5,-76 1949.5,-76 1943.5,-76 1937.5,-70 1937.5,-64 1937.5,-64 1937.5,-52 1937.5,-52 1937.5,-46 1943.5,-40 1949.5,-40 1949.5,-40 1994.5,-40 1994.5,-40 2000.5,-40 2006.5,-46 2006.5,-52 2006.5,-52 2006.5,-64 2006.5,-64 2006.5,-70 2000.5,-76 1994.5,-76"/>
<text text-anchor="middle" x="1972" y="-54.3" font-family="Arial" font-size="14.00" fill="#000000">request2</text>
</g>
<!-- system_pcie2_upstreamResponse&#45;&gt;system_RootComplex_request2 -->
<g id="edge12" class="edge">
<title>system_pcie2_upstreamResponse&#45;&gt;system_RootComplex_request2</title>
<path fill="none" stroke="black" d="M2386.15,-180.79C2381.03,-179.15 2375.93,-177.53 2371,-176 2236.76,-134.25 2075.85,-88.31 2006.54,-68.72"/>
<polygon fill="black" stroke="black" points="2385.38,-184.22 2395.97,-183.96 2387.53,-177.56 2385.38,-184.22"/>
</g>
<!-- system_pcie2_upstreamRequest -->
<g id="node15" class="node">
<title>system_pcie2_upstreamRequest</title>
<path fill="#94918b" stroke="#000000" d="M2350,-220C2350,-220 2250,-220 2250,-220 2244,-220 2238,-214 2238,-208 2238,-208 2238,-196 2238,-196 2238,-190 2244,-184 2250,-184 2250,-184 2350,-184 2350,-184 2356,-184 2362,-190 2362,-196 2362,-196 2362,-208 2362,-208 2362,-214 2356,-220 2350,-220"/>
<text text-anchor="middle" x="2300" y="-198.3" font-family="Arial" font-size="14.00" fill="#000000">upstreamRequest</text>
</g>
<!-- system_RootComplex_response_dma2 -->
<g id="node30" class="node">
<title>system_RootComplex_response_dma2</title>
<path fill="#94918b" stroke="#000000" d="M1907,-76C1907,-76 1817,-76 1817,-76 1811,-76 1805,-70 1805,-64 1805,-64 1805,-52 1805,-52 1805,-46 1811,-40 1817,-40 1817,-40 1907,-40 1907,-40 1913,-40 1919,-46 1919,-52 1919,-52 1919,-64 1919,-64 1919,-70 1913,-76 1907,-76"/>
<text text-anchor="middle" x="1862" y="-54.3" font-family="Arial" font-size="14.00" fill="#000000">response_dma2</text>
</g>
<!-- system_pcie2_upstreamRequest&#45;&gt;system_RootComplex_response_dma2 -->
<g id="edge13" class="edge">
<title>system_pcie2_upstreamRequest&#45;&gt;system_RootComplex_response_dma2</title>
<path fill="none" stroke="black" d="M2256.74,-183.98C2246.79,-180.75 2236.15,-177.81 2226,-176 2209.75,-173.1 1943.3,-176.25 1929,-168 1898.26,-150.26 1879.79,-112.2 1870.25,-86.1"/>
<polygon fill="black" stroke="black" points="1873.48,-84.73 1866.92,-76.41 1866.86,-87.01 1873.48,-84.73"/>
</g>
<!-- system_pcie3_upstreamResponse -->
<g id="node16" class="node">
<title>system_pcie3_upstreamResponse</title>
<path fill="#94918b" stroke="#000000" d="M2202,-220C2202,-220 2092,-220 2092,-220 2086,-220 2080,-214 2080,-208 2080,-208 2080,-196 2080,-196 2080,-190 2086,-184 2092,-184 2092,-184 2202,-184 2202,-184 2208,-184 2214,-190 2214,-196 2214,-196 2214,-208 2214,-208 2214,-214 2208,-220 2202,-220"/>
<text text-anchor="middle" x="2147" y="-198.3" font-family="Arial" font-size="14.00" fill="#000000">upstreamResponse</text>
</g>
<!-- system_RootComplex_request3 -->
<g id="node27" class="node">
<title>system_RootComplex_request3</title>
<path fill="#94918b" stroke="#000000" d="M1774.5,-76C1774.5,-76 1729.5,-76 1729.5,-76 1723.5,-76 1717.5,-70 1717.5,-64 1717.5,-64 1717.5,-52 1717.5,-52 1717.5,-46 1723.5,-40 1729.5,-40 1729.5,-40 1774.5,-40 1774.5,-40 1780.5,-40 1786.5,-46 1786.5,-52 1786.5,-52 1786.5,-64 1786.5,-64 1786.5,-70 1780.5,-76 1774.5,-76"/>
<text text-anchor="middle" x="1752" y="-54.3" font-family="Arial" font-size="14.00" fill="#000000">request3</text>
</g>
<!-- system_pcie3_upstreamResponse&#45;&gt;system_RootComplex_request3 -->
<g id="edge14" class="edge">
<title>system_pcie3_upstreamResponse&#45;&gt;system_RootComplex_request3</title>
<path fill="none" stroke="black" d="M2092.5,-181C2085.35,-178.99 2078.05,-177.24 2071,-176 2055.95,-173.36 1808.54,-176.73 1796,-168 1765.68,-146.9 1756.24,-101.15 1753.31,-76.15"/>
<polygon fill="black" stroke="black" points="2091.55,-184.37 2102.14,-183.88 2093.56,-177.66 2091.55,-184.37"/>
</g>
<!-- system_pcie3_upstreamRequest -->
<g id="node17" class="node">
<title>system_pcie3_upstreamRequest</title>
<path fill="#94918b" stroke="#000000" d="M2050,-220C2050,-220 1950,-220 1950,-220 1944,-220 1938,-214 1938,-208 1938,-208 1938,-196 1938,-196 1938,-190 1944,-184 1950,-184 1950,-184 2050,-184 2050,-184 2056,-184 2062,-190 2062,-196 2062,-196 2062,-208 2062,-208 2062,-214 2056,-220 2050,-220"/>
<text text-anchor="middle" x="2000" y="-198.3" font-family="Arial" font-size="14.00" fill="#000000">upstreamRequest</text>
</g>
<!-- system_RootComplex_response_dma3 -->
<g id="node31" class="node">
<title>system_RootComplex_response_dma3</title>
<path fill="#94918b" stroke="#000000" d="M1687,-76C1687,-76 1597,-76 1597,-76 1591,-76 1585,-70 1585,-64 1585,-64 1585,-52 1585,-52 1585,-46 1591,-40 1597,-40 1597,-40 1687,-40 1687,-40 1693,-40 1699,-46 1699,-52 1699,-52 1699,-64 1699,-64 1699,-70 1693,-76 1687,-76"/>
<text text-anchor="middle" x="1642" y="-54.3" font-family="Arial" font-size="14.00" fill="#000000">response_dma3</text>
</g>
<!-- system_pcie3_upstreamRequest&#45;&gt;system_RootComplex_response_dma3 -->
<g id="edge15" class="edge">
<title>system_pcie3_upstreamRequest&#45;&gt;system_RootComplex_response_dma3</title>
<path fill="none" stroke="black" d="M1956.34,-183.93C1946.5,-180.74 1936,-177.83 1926,-176 1902.27,-171.65 1729.84,-180.16 1709,-168 1678.34,-150.11 1659.86,-112.09 1650.29,-86.03"/>
<polygon fill="black" stroke="black" points="1653.52,-84.67 1646.94,-76.37 1646.9,-86.96 1653.52,-84.67"/>
</g>
<!-- system_pcie4_downstreamResponse -->
<g id="node18" class="node">
<title>system_pcie4_downstreamResponse</title>
<path fill="#94918b" stroke="#000000" d="M1566,-220C1566,-220 1438,-220 1438,-220 1432,-220 1426,-214 1426,-208 1426,-208 1426,-196 1426,-196 1426,-190 1432,-184 1438,-184 1438,-184 1566,-184 1566,-184 1572,-184 1578,-190 1578,-196 1578,-196 1578,-208 1578,-208 1578,-214 1572,-220 1566,-220"/>
<text text-anchor="middle" x="1502" y="-198.3" font-family="Arial" font-size="14.00" fill="#000000">downstreamResponse</text>
</g>
<!-- system_pcie4_downstreamRequest -->
<g id="node19" class="node">
<title>system_pcie4_downstreamRequest</title>
<path fill="#94918b" stroke="#000000" d="M1395.5,-220C1395.5,-220 1278.5,-220 1278.5,-220 1272.5,-220 1266.5,-214 1266.5,-208 1266.5,-208 1266.5,-196 1266.5,-196 1266.5,-190 1272.5,-184 1278.5,-184 1278.5,-184 1395.5,-184 1395.5,-184 1401.5,-184 1407.5,-190 1407.5,-196 1407.5,-196 1407.5,-208 1407.5,-208 1407.5,-214 1401.5,-220 1395.5,-220"/>
<text text-anchor="middle" x="1337" y="-198.3" font-family="Arial" font-size="14.00" fill="#000000">downstreamRequest</text>
</g>
<!-- system_pcie5_downstreamResponse -->
<g id="node20" class="node">
<title>system_pcie5_downstreamResponse</title>
<path fill="#94918b" stroke="#000000" d="M1902,-220C1902,-220 1774,-220 1774,-220 1768,-220 1762,-214 1762,-208 1762,-208 1762,-196 1762,-196 1762,-190 1768,-184 1774,-184 1774,-184 1902,-184 1902,-184 1908,-184 1914,-190 1914,-196 1914,-196 1914,-208 1914,-208 1914,-214 1908,-220 1902,-220"/>
<text text-anchor="middle" x="1838" y="-198.3" font-family="Arial" font-size="14.00" fill="#000000">downstreamResponse</text>
</g>
<!-- system_pcie5_downstreamRequest -->
<g id="node21" class="node">
<title>system_pcie5_downstreamRequest</title>
<path fill="#94918b" stroke="#000000" d="M1731.5,-220C1731.5,-220 1614.5,-220 1614.5,-220 1608.5,-220 1602.5,-214 1602.5,-208 1602.5,-208 1602.5,-196 1602.5,-196 1602.5,-190 1608.5,-184 1614.5,-184 1614.5,-184 1731.5,-184 1731.5,-184 1737.5,-184 1743.5,-190 1743.5,-196 1743.5,-196 1743.5,-208 1743.5,-208 1743.5,-214 1737.5,-220 1731.5,-220"/>
<text text-anchor="middle" x="1673" y="-198.3" font-family="Arial" font-size="14.00" fill="#000000">downstreamRequest</text>
</g>
<!-- system_pcie6_downstreamResponse -->
<g id="node22" class="node">
<title>system_pcie6_downstreamResponse</title>
<path fill="#94918b" stroke="#000000" d="M600,-220C600,-220 472,-220 472,-220 466,-220 460,-214 460,-208 460,-208 460,-196 460,-196 460,-190 466,-184 472,-184 472,-184 600,-184 600,-184 606,-184 612,-190 612,-196 612,-196 612,-208 612,-208 612,-214 606,-220 600,-220"/>
<text text-anchor="middle" x="536" y="-198.3" font-family="Arial" font-size="14.00" fill="#000000">downstreamResponse</text>
</g>
<!-- system_pcie6_downstreamRequest -->
<g id="node23" class="node">
<title>system_pcie6_downstreamRequest</title>
<path fill="#94918b" stroke="#000000" d="M429.5,-220C429.5,-220 312.5,-220 312.5,-220 306.5,-220 300.5,-214 300.5,-208 300.5,-208 300.5,-196 300.5,-196 300.5,-190 306.5,-184 312.5,-184 312.5,-184 429.5,-184 429.5,-184 435.5,-184 441.5,-190 441.5,-196 441.5,-196 441.5,-208 441.5,-208 441.5,-214 435.5,-220 429.5,-220"/>
<text text-anchor="middle" x="371" y="-198.3" font-family="Arial" font-size="14.00" fill="#000000">downstreamRequest</text>
</g>
<!-- system_switch_response -->
<g id="node32" class="node">
<title>system_switch_response</title>
<path fill="#94918b" stroke="#000000" d="M1036,-350C1036,-350 988,-350 988,-350 982,-350 976,-344 976,-338 976,-338 976,-326 976,-326 976,-320 982,-314 988,-314 988,-314 1036,-314 1036,-314 1042,-314 1048,-320 1048,-326 1048,-326 1048,-338 1048,-338 1048,-344 1042,-350 1036,-350"/>
<text text-anchor="middle" x="1012" y="-328.3" font-family="Arial" font-size="14.00" fill="#000000">response</text>
</g>
<!-- system_switch_response&#45;&gt;system_pcie1_downstreamRequest -->
<g id="edge16" class="edge">
<title>system_switch_response&#45;&gt;system_pcie1_downstreamRequest</title>
<path fill="none" stroke="black" d="M975.04,-309.39C972.36,-308.16 969.66,-307.01 967,-306 890.39,-276.91 861.05,-301.12 787,-266 762.72,-254.48 739.07,-234.43 723.86,-220.04"/>
<polygon fill="black" stroke="black" points="973.52,-312.54 984.03,-313.84 976.62,-306.27 973.52,-312.54"/>
</g>
<!-- system_switch_request1 -->
<g id="node33" class="node">
<title>system_switch_request1</title>
<path fill="#94918b" stroke="#000000" d="M1369.5,-350C1369.5,-350 1324.5,-350 1324.5,-350 1318.5,-350 1312.5,-344 1312.5,-338 1312.5,-338 1312.5,-326 1312.5,-326 1312.5,-320 1318.5,-314 1324.5,-314 1324.5,-314 1369.5,-314 1369.5,-314 1375.5,-314 1381.5,-320 1381.5,-326 1381.5,-326 1381.5,-338 1381.5,-338 1381.5,-344 1375.5,-350 1369.5,-350"/>
<text text-anchor="middle" x="1347" y="-328.3" font-family="Arial" font-size="14.00" fill="#000000">request1</text>
</g>
<!-- system_switch_request1&#45;&gt;system_pcie4_downstreamResponse -->
<g id="edge17" class="edge">
<title>system_switch_request1&#45;&gt;system_pcie4_downstreamResponse</title>
<path fill="none" stroke="black" d="M1367.9,-313.74C1395.06,-291.31 1442.6,-252.05 1473.17,-226.81"/>
<polygon fill="black" stroke="black" points="1475.45,-229.46 1480.93,-220.4 1470.99,-224.07 1475.45,-229.46"/>
</g>
<!-- system_switch_request2 -->
<g id="node34" class="node">
<title>system_switch_request2</title>
<path fill="#94918b" stroke="#000000" d="M1589.5,-350C1589.5,-350 1544.5,-350 1544.5,-350 1538.5,-350 1532.5,-344 1532.5,-338 1532.5,-338 1532.5,-326 1532.5,-326 1532.5,-320 1538.5,-314 1544.5,-314 1544.5,-314 1589.5,-314 1589.5,-314 1595.5,-314 1601.5,-320 1601.5,-326 1601.5,-326 1601.5,-338 1601.5,-338 1601.5,-344 1595.5,-350 1589.5,-350"/>
<text text-anchor="middle" x="1567" y="-328.3" font-family="Arial" font-size="14.00" fill="#000000">request2</text>
</g>
<!-- system_switch_request2&#45;&gt;system_pcie5_downstreamResponse -->
<g id="edge18" class="edge">
<title>system_switch_request2&#45;&gt;system_pcie5_downstreamResponse</title>
<path fill="none" stroke="black" d="M1601.54,-322.31C1639.89,-311.9 1702.97,-292.49 1753,-266 1773.6,-255.09 1794.66,-239.52 1810.66,-226.59"/>
<polygon fill="black" stroke="black" points="1813.04,-229.16 1818.54,-220.1 1808.6,-223.76 1813.04,-229.16"/>
</g>
<!-- system_switch_request3 -->
<g id="node35" class="node">
<title>system_switch_request3</title>
<path fill="#94918b" stroke="#000000" d="M945.5,-350C945.5,-350 900.5,-350 900.5,-350 894.5,-350 888.5,-344 888.5,-338 888.5,-338 888.5,-326 888.5,-326 888.5,-320 894.5,-314 900.5,-314 900.5,-314 945.5,-314 945.5,-314 951.5,-314 957.5,-320 957.5,-326 957.5,-326 957.5,-338 957.5,-338 957.5,-344 951.5,-350 945.5,-350"/>
<text text-anchor="middle" x="923" y="-328.3" font-family="Arial" font-size="14.00" fill="#000000">request3</text>
</g>
<!-- system_switch_request3&#45;&gt;system_pcie6_downstreamResponse -->
<g id="edge19" class="edge">
<title>system_switch_request3&#45;&gt;system_pcie6_downstreamResponse</title>
<path fill="none" stroke="black" d="M896.26,-313.8C890.73,-310.82 884.81,-308.03 879,-306 770.7,-268.16 730.17,-309.45 624,-266 601.14,-256.64 578.54,-240.28 561.98,-226.57"/>
<polygon fill="black" stroke="black" points="564.24,-223.9 554.35,-220.1 559.71,-229.24 564.24,-223.9"/>
</g>
<!-- system_switch_response_dma1 -->
<g id="node36" class="node">
<title>system_switch_response_dma1</title>
<path fill="#94918b" stroke="#000000" d="M1282,-350C1282,-350 1192,-350 1192,-350 1186,-350 1180,-344 1180,-338 1180,-338 1180,-326 1180,-326 1180,-320 1186,-314 1192,-314 1192,-314 1282,-314 1282,-314 1288,-314 1294,-320 1294,-326 1294,-326 1294,-338 1294,-338 1294,-344 1288,-350 1282,-350"/>
<text text-anchor="middle" x="1237" y="-328.3" font-family="Arial" font-size="14.00" fill="#000000">response_dma1</text>
</g>
<!-- system_switch_response_dma1&#45;&gt;system_pcie4_downstreamRequest -->
<g id="edge20" class="edge">
<title>system_switch_response_dma1&#45;&gt;system_pcie4_downstreamRequest</title>
<path fill="none" stroke="black" d="M1256.75,-305.72C1276.46,-280.49 1306.21,-242.41 1323.41,-220.4"/>
<polygon fill="black" stroke="black" points="1253.88,-303.7 1250.49,-313.74 1259.4,-308.01 1253.88,-303.7"/>
</g>
<!-- system_switch_request_dma -->
<g id="node37" class="node">
<title>system_switch_request_dma</title>
<path fill="#94918b" stroke="#000000" d="M1150,-350C1150,-350 1078,-350 1078,-350 1072,-350 1066,-344 1066,-338 1066,-338 1066,-326 1066,-326 1066,-320 1072,-314 1078,-314 1078,-314 1150,-314 1150,-314 1156,-314 1162,-320 1162,-326 1162,-326 1162,-338 1162,-338 1162,-344 1156,-350 1150,-350"/>
<text text-anchor="middle" x="1114" y="-328.3" font-family="Arial" font-size="14.00" fill="#000000">request_dma</text>
</g>
<!-- system_switch_request_dma&#45;&gt;system_pcie1_downstreamResponse -->
<g id="edge21" class="edge">
<title>system_switch_request_dma&#45;&gt;system_pcie1_downstreamResponse</title>
<path fill="none" stroke="black" d="M1100.51,-313.74C1083.37,-291.79 1053.62,-253.72 1033.87,-228.44"/>
<polygon fill="black" stroke="black" points="1036.51,-226.12 1027.59,-220.4 1030.99,-230.43 1036.51,-226.12"/>
</g>
<!-- system_switch_response_dma2 -->
<g id="node38" class="node">
<title>system_switch_response_dma2</title>
<path fill="#94918b" stroke="#000000" d="M1502,-350C1502,-350 1412,-350 1412,-350 1406,-350 1400,-344 1400,-338 1400,-338 1400,-326 1400,-326 1400,-320 1406,-314 1412,-314 1412,-314 1502,-314 1502,-314 1508,-314 1514,-320 1514,-326 1514,-326 1514,-338 1514,-338 1514,-344 1508,-350 1502,-350"/>
<text text-anchor="middle" x="1457" y="-328.3" font-family="Arial" font-size="14.00" fill="#000000">response_dma2</text>
</g>
<!-- system_switch_response_dma2&#45;&gt;system_pcie5_downstreamRequest -->
<g id="edge22" class="edge">
<title>system_switch_response_dma2&#45;&gt;system_pcie5_downstreamRequest</title>
<path fill="none" stroke="black" d="M1506.22,-309.73C1531.84,-297.98 1563.3,-282.44 1590,-266 1612.49,-252.15 1636.32,-233.61 1652.65,-220.23"/>
<polygon fill="black" stroke="black" points="1504.72,-306.57 1497.06,-313.89 1507.62,-312.94 1504.72,-306.57"/>
</g>
<!-- system_switch_response_dma3 -->
<g id="node39" class="node">
<title>system_switch_response_dma3</title>
<path fill="#94918b" stroke="#000000" d="M858,-350C858,-350 768,-350 768,-350 762,-350 756,-344 756,-338 756,-338 756,-326 756,-326 756,-320 762,-314 768,-314 768,-314 858,-314 858,-314 864,-314 870,-320 870,-326 870,-326 870,-338 870,-338 870,-344 864,-350 858,-350"/>
<text text-anchor="middle" x="813" y="-328.3" font-family="Arial" font-size="14.00" fill="#000000">response_dma3</text>
</g>
<!-- system_switch_response_dma3&#45;&gt;system_pcie6_downstreamRequest -->
<g id="edge23" class="edge">
<title>system_switch_response_dma3&#45;&gt;system_pcie6_downstreamRequest</title>
<path fill="none" stroke="black" d="M766.18,-310.41C761.44,-308.75 756.66,-307.24 752,-306 621.6,-271.24 575.32,-318.5 451,-266 426.08,-255.48 402.37,-235.03 387.33,-220.28"/>
<polygon fill="black" stroke="black" points="765.18,-313.78 775.78,-313.98 767.62,-307.22 765.18,-313.78"/>
</g>
</g>
</svg>
